<svg version="1.2" xmlns="http://www.w3.org/2000/svg" viewBox="0 0 340 156" width="340" height="156">
	<title>rsc-header-logo-2024-black-svg</title>
	<style>
		.s0 { fill: #f32735 } 
		.s1 { fill: #0e394d } 
	</style>
	<g>
		<path fill-rule="evenodd" class="s0" d="m333.4 72.5c2.2 0.5 6.4 1.1 6.4 4.6 0 3.4-2.5 4.8-4.2 4.8-1.7 0-2.8 0.6-2.8 2.9 0 2.3-0.3 11.1-2.2 18.9-1.9 7.7-9.2 14-14.2 14.3-5 0.3-6.1-4.9-6.9-6.6-0.8-1.7-1.9-1.4-1.9-1.4-2.5 5.1-7.3 9.4-10.9 9.4-3.6 0-4.4-2.9-5.5-4.6-1.1-1.7-2.5-0.8-3.3 0-0.9 0.9-2.5 2.3-5.6 2.3-3 0-7.5-5.1-7.5-5.1 0 0-4.4 5.7-7.5 8.3-3 2.5-6.1-0.3-7.5-2.3-1.4-2-2.2-4-4.7-4-2.5 0-1.7 2.8-7.8 3.1-6.1 0.3-7.2-8.6-7.2-12 0-3.4-0.3-14-0.3-14-2.7 1.4-4.1 4-4.7 7.1-0.5 3.2-1.9 10-2.7 16.6-0.9 6.6-3.4 5.5-5.3 5.5-2 0-2.5-0.6-3.1-2.3-0.5-1.7-0.5-7.5-0.8-10.6-0.3-3.2-0.8-2.6-0.8-2.6-1.7 2-5.9 7.5-11.4 12.3-5.6 4.9-13.9 0.9-16.7-1.1-2.7-2-3.2-0.9-4.7 0.3-1.5 1.1-1.5 3-6.6 3-5.2 0-7.4-6.5-8.6-10.3-1.1-3.8-1.8-2.3-1.8-2.3-1.9 5.8-6.7 10.3-12.2 13-5.6 2.7-7-2.7-8.9-7.6-1.8-5 1.5-16.8 3.3-22.9 1.9-6.1 1.5-6.1-0.3-8.4-1.9-2.3-3.7 0-3.7 2.3 0 2.3-1.1 5.3-3.4 14.9-2.2 9.5-8.8 21.7-18.5 21.7-9.6 0-12.9-17.6-13.3-19.8-0.4-2.3-1.8-2.7-1.8-2.7 0 5.7-4.5 24-14.5 23.3-11.8-0.9-12.2-25.2-12.2-30.2 0-4.9-0.7-7.6-0.7-7.6-3.7-0.4-4.1 2.7-4.1 4.6-0.7 13.3-2.9 20.6-5.9 25.9-3 5.4-7.8 6.1-11.1 4.2-3.3-1.9-4.1 0.4-5.6 1.5-1.4 1.2-3.7 0-8.1-4.9-4.4-5-19.2-20.6-21.5-23.3-2.2-2.7-4.4-1.9-4.4-1.9 0 0-0.4 15.6-1.1 22.9-0.8 7.2-3.7 8.8-7 7.6-3.4-1.1-5.2-9.1-5.2-13.7 0-4.6 1.5-18.3 1.8-23.3 0.4-5-2.9-8.8-2.9-8.8 1.8-1.9 4.4-5.7 5.5-9.1 1.1-3.5 3.5-23.9 3.9-26.2 0.4-2.3-1.7-1.3-2.4-0.9-0.7 0.4-4.1 3.4-8.5 7.4-4.5 4-7.6 2.7-9.3-1.9-1.6-4.6 0.4-11.5 8.7-17.5 14.8-10.7 28.7-15.7 35.9-18.5 7.2-2.9 15.4-3.3 19.1-2.3 3.7 0.9 13.1 4.4 15.3 12 4 13.6-3.5 19.4-11.4 27.8-8 8.4-35.8 28.7-35.8 28.7l-0.1 2c0 0 19.6 19.9 20.7 21 1.1 1.2 2.4 1 2.4 1 1.7-10.7 5.7-25.6 6.6-27.3 1-1.7 4.7-5.5 7.3-5.5 3.5 0 3.3 3 3.3 3 7.6 0.2 7.6 2.9 8.5 4.6 0.9 1.7 1.3 3.4 4.1 3.6 2.8 0.2 4.4-6.8 4.8-11.6 0.9-13.4 6.8-28 8.7-31.3 1.8-3.2 5.2-6.5 6.5-6.3 1.3 0.2 3.8 2.9 3.3 9.6-2 17.5-8.3 27.4-10.4 39.3-2 11.8-0.7 28.4 0.2 32.2 0.9 3.8 2.8 5.3 4.8 2.3 2.1-3.1 3.2-6.9 3.5-12.6 0 0-4.8-9-5.7-10.5-0.9-1.5-1.1-3-0.6-4 0.6-1 1-2.7 3.6-4.6 2.6-1.9 6.1 0.2 7.2 2.5 1.1 2.3 2.9 7.6 2.9 7.6h2.3c1.6-4.9 8.8-15.6 11.2-18.5 2.4-2.8 8.6-6.3 13-1.9 4.7 4.7 2.6 9.6-1.3 16-3.9 6.5-14.2 11.3-14.2 11.3 0.1 4-0.2 13.9 5.9 14.1 7.9 0.3 11.4-16 13.5-21.7 2-5.8 1.3-11.3 2-14.5 0.8-3.3 3.5-4.2 5.2-3.3 1.7 1 5 3.3 9.1 5.9 4 2.7 3.8 6.1 3.5 8.4-0.4 2.3-1.1 8.2-2.2 12.6-1.2 4.4-3.2 11.1-0.6 12.4 2.8 1.5 5.6-3 8.3-7.8 2.8-4.8 5.6-18.5 6.5-23.7 0.9-5.1 0.7-11.8 0.7-11.8-2.7-0.2-7.5 1-12.4 1.5-4.8 0.6-4.2-5.7-1.8-8 2.4-2.3 9.4-4.9 14.6-5.5 3.3-0.4 2.8-2.9 2.8-4 0-1.2-0.2-6.9 4.6-6.9 4.8 0 6.3 10.1 6.3 10.1 0 0 3.9 0.8 6.7 1.4 2.7 0.5 4.6 2.8 4.6 4.7 0 1.9-0.6 4.2-3.7 4-3.2-0.1-7.8-0.7-10.9 6.3-3.2 7.1-4.6 30.6-4.5 33.6 0.2 3.1 1.1 10.3 6 4.2 6.6-8.5 11.6-25.9 11.6-25.9 0 0 0-6.5 0.9-10.1 1-3.7 3.7-10.3 6.5-9.6 6.2 1.7 4.1 12.2 3.9 14.7-0.2 2.5 0.2 4.2 0.6 5.2 0.3 0.9 1.4 3.2 2.7 9.3 1.3 6.1 0.2 12.6 0.2 12.6 5.9-5 7.8-16.6 8.9-22.9 1.1-6.3 4.6-37.4 4.6-40.8 0-3.4 0.9-4.2 3.9-5.2 3-0.9 4.1 0.6 4.4 5.8 0.4 5.1-1.8 30.7-2.2 34.1-0.3 3.4-0.5 6.3 0.4 6.1 1.4-0.3 1.3-0.4 2.6-3 1.3-2.7 4.4-6 7.6-6.1 3.1-0.2 3.9 1.7 3.9 5.3 0 3.6-0.4 17.9-0.6 23.5-0.2 5.5 1.3 7.4 3.5 7.8 2.2 0.4 3.9-0.4 3.9-7.6 0.4-16.8 9.8-27.9 12.6-31.3 2.8-3.5 5-5.4 6.6-5.4 4.5 0 4.3 5 4.1 7.7-0.2 2.6 0.4 3.2 2 4.5 1.7 1.4 1.5 2.7 0.6 6.7-0.9 4-0.9 15.7 0 19.3 0.9 3.6 2.8 3.8 5.2 2.8 2.4-0.9 2-5.1 1.8-8-0.2-5.5 3.7-20.6 4.5-22.3 0.7-1.7 1.6-2.7 3.1-1.9 1.5 0.8 2.4 1.7 3.5 3 1.1 1.4 1 3.5 0.2 6.2-0.7 2.6-2.6 15.2-2.9 18.6-0.4 3.5-0.2 6.3 1.6 6.5 1.9 0.2 3.2-1.7 4.7-5.9 1.4-4.2 3.6-20.1 4.4-22.7 0.8-2.6 2-4.6 3.6-3.7 4.1 2.2 3.6 5.1 3.9 6.9 0.3 1.7-0.3 7.4-0.6 12-0.2 4.6 0 12.9 3.4 12.9 5.3 0 5.5-8.1 5.5-11.2 0-3.1-0.5-10.6-0.5-17.5 0-6.8 7.5-5.4 9.7-4.8m-202.1 10.9c1.7-1.7 4.5-3.8 4.7-5.9 0.2-2.1 0.3-5.9-4.3-2.1-2.8 2.9-4.2 6.7-4.6 9.4-0.4 2.7 2.6 0.4 4.2-1.4zm-85.2-34.5c13.5-11.4 19.9-16.6 21.8-19.4 1.8-2.9 3.6-10.1-2.1-11.3-7.4-1.5-9.2-0.4-13.8 1.3-4.7 1.8-13 6-15 6.9-2.1 1-3.5 1.2-3.9 4-0.4 2.9-2.8 28.2-2.8 28.2 0 0 2.2 1.8 15.8-9.7zm27.3 49.1c0.4-6 0.6-12.5 0.6-12.5 0 0-3-1.5-4.1-4.5-1.1-3.1-0.9-2.3-1.6-1.7 0 0-3.6 9.3-3.6 17.3 0 8 0.6 10.7 2.8 10.7 2.2 0 5.6-3.4 5.9-9.4zm131.9 9c1.3-4.4 0.8-9.3 0-12.8-0.7-3.4-0.3-4.9-1.2-4.2 0 0-3.6 7.7-4.7 9.4-1.1 1.7-1.1 5.9-0.5 6.3 0.5 0.4 1.3-1 2.9 4 0 0 2.3 1.7 3.5-2.7zm69.8-26.9l-3-3.2c-1.8 3.8-7.4 11.6-7.5 28.2-0.2 4 2.9 6.1 4.9 1 2.1-5.2 4.5-15.7 5.6-26z"/>
		<path fill-rule="evenodd" class="s0" d="m331.9 118.4c-2.1 0-3.7-1.6-3.7-3.7 0-2 1.6-3.6 3.7-3.6 2 0 3.7 1.6 3.7 3.6 0 2.1-1.7 3.7-3.7 3.7zm3-3.7c0-1.6-1.4-3-3-3-1.7 0-3 1.4-3 3 0 1.7 1.3 3.1 3 3.1 1.6 0 3-1.4 3-3.1zm-3.8 2.2h-0.6v-4.3h1.6c1 0 1.5 0.4 1.5 1.2 0 0.8-0.5 1.1-1.1 1.2l1.2 1.9h-0.7l-1.2-1.9h-0.7zm0.8-2.4c0.5 0 1 0 1-0.6 0-0.6-0.5-0.7-0.9-0.7h-0.9v1.3c0 0 0.8 0 0.8 0z"/>
	</g>
	<path fill-rule="evenodd" class="s1" d="m6.2 136.8q2.4 0 3.7 1.1 1.3 1.1 1.3 3 0 1-0.5 1.8-0.6 0.8-1.7 1.2 1.3 0.4 1.8 1.2 0.5 0.9 0.5 2.1v0.7q0 0.5 0.2 0.7 0.2 0.3 0.6 0.3l0.3 0.1v1.6h-1.4q-1.3 0-1.9-0.7-0.5-0.7-0.5-1.9v-0.8q0-1-0.6-1.5-0.5-0.6-1.5-0.6h-2.2v3.6l1.4 0.3v1.6h-5.7v-1.6l1.5-0.3v-9.9l-1.5-0.3v-1.7h6.2zm-1.9 6.1h1.9q1.1 0 1.7-0.5 0.6-0.5 0.6-1.4 0-0.9-0.6-1.5-0.6-0.5-1.7-0.5h-1.9z"/>
	<path fill-rule="evenodd" class="s1" d="m13.2 149l1-0.2 4.2-12h2.8l4.2 12 1 0.2v1.6h-4.7v-1.6l0.9-0.2-0.6-1.9h-4.4l-0.6 1.9 0.9 0.2v1.6h-4.7zm5-4.1h3.2l-1.6-4.8c0 0-1.6 4.8-1.6 4.8z"/>
	<path class="s1" d="m41.4 136.8v1.7l-1.5 0.3v11.8h-2.8l-5.5-9.3-0.1 0.1v7.3l1.5 0.3v1.7h-5.7v-1.7l1.5-0.3v-9.9l-1.5-0.3v-1.7h4.2l5.6 9.3v-7.3l-1.4-0.3v-1.7h5.7z"/>
	<path class="s1" d="m53.6 141.5h-2.1l-0.3-1.9q-0.4-0.4-1-0.6-0.6-0.2-1.5-0.2-1.8 0-2.7 1.3-1 1.3-1 3.4v0.5q0 2.1 1 3.4 0.9 1.3 2.7 1.3 0.8 0 1.5-0.2 0.6-0.3 1-0.7l0.3-1.8h2.1v2.7q-0.9 1-2.2 1.6-1.3 0.5-2.9 0.5-2.7 0-4.5-1.9-1.8-1.9-1.8-4.9v-0.5q0-3 1.8-4.9 1.8-2 4.5-2 1.6 0 2.9 0.6 1.3 0.6 2.2 1.6c0 0 0 2.7 0 2.7z"/>
	<path fill-rule="evenodd" class="s1" d="m67.4 143.8q0 3.1-1.7 5.1-1.7 1.9-4.5 1.9-2.8 0-4.5-1.9-1.8-2-1.8-5.1v-0.2q0-3 1.8-5 1.7-2 4.5-2 2.8 0 4.5 2 1.7 2 1.7 5zm-2.7-0.2q0-2.1-0.9-3.5-0.9-1.3-2.6-1.3-1.8 0-2.6 1.3-0.9 1.3-0.9 3.5v0.2q0 2.2 0.9 3.5 0.8 1.4 2.6 1.4 1.7 0 2.6-1.4 0.9-1.3 0.9-3.5z"/>
	<path class="s0" d="m79.7 146.8c-1.6 0-2.9-1.4-2.9-3.1 0-1.7 1.3-3 2.9-3 1.6 0 3 1.3 3 3 0 1.7-1.4 3.1-3 3.1z"/>
	<path fill-rule="evenodd" class="s1" d="m98.5 136.8q2.4 0 3.8 1.2 1.3 1.3 1.3 3.2 0 2-1.3 3.2-1.4 1.2-3.8 1.2h-2.3v3.1l1.5 0.3v1.6h-5.7v-1.6l1.4-0.3v-9.9l-1.4-0.3v-1.7h6.5zm-2.3 6.7h2.3q1.2 0 1.8-0.6 0.6-0.7 0.6-1.6 0-1-0.6-1.7-0.6-0.6-1.8-0.6h-2.3z"/>
	<path fill-rule="evenodd" class="s1" d="m102.1 149l1-0.2 4.2-12h2.8l4.2 12 1 0.2v1.6h-4.7v-1.6l1-0.2-0.7-1.9h-4.4l-0.6 1.9 0.9 0.2v1.6h-4.7zm5-4.1h3.2l-1.6-4.8c0 0-1.6 4.8-1.6 4.8z"/>
	<path fill-rule="evenodd" class="s1" d="m122.4 136.8q2.3 0 3.7 1.1 1.3 1.1 1.3 3 0 1-0.5 1.8-0.6 0.8-1.7 1.2 1.2 0.4 1.8 1.2 0.5 0.9 0.5 2.1v0.7q0 0.5 0.2 0.7 0.2 0.3 0.6 0.3l0.3 0.1v1.6h-1.4q-1.4 0-1.9-0.7-0.6-0.7-0.6-1.9v-0.8q0-1-0.5-1.5-0.5-0.6-1.5-0.6h-2.3v3.6l1.5 0.3v1.6h-5.7v-1.6l1.5-0.3v-9.9l-1.5-0.3v-1.7h6.2zm-2 6.1h1.9q1.2 0 1.8-0.5 0.6-0.5 0.6-1.4 0-0.9-0.6-1.5-0.6-0.5-1.7-0.5h-2z"/>
	<path fill-rule="evenodd" class="s1" d="m129.4 149l1-0.2 4.2-12h2.8l4.2 12 1 0.2v1.6h-4.7v-1.6l0.9-0.2-0.6-1.9h-4.5l-0.6 1.9 1 0.2v1.6h-4.7zm5-4.1h3.2l-1.6-4.8h-0.1c0 0-1.5 4.8-1.5 4.8z"/>
	<path class="s1" d="m154.3 149.1q-0.7 0.7-1.9 1.2-1.3 0.5-3.3 0.5-2.8 0-4.5-1.8-1.8-1.9-1.8-4.9v-0.5q0-3.1 1.7-5 1.8-2 4.6-2 1.6 0 2.9 0.5 1.3 0.6 2.2 1.4v2.8h-2l-0.4-1.8q-0.4-0.3-1-0.5-0.6-0.2-1.4-0.2-1.8 0-2.8 1.3-1 1.3-1 3.5v0.5q0 2.1 1 3.4 0.9 1.2 2.8 1.2 0.8 0 1.3-0.1 0.6-0.2 0.8-0.4v-2.3l-1.9-0.2v-1.9h4.7c0 0 0 5.3 0 5.3z"/>
	<path fill-rule="evenodd" class="s1" d="m168.3 143.8q0 3.1-1.7 5.1-1.8 1.9-4.6 1.9-2.8 0-4.5-1.9-1.7-2-1.7-5.1v-0.2q0-3 1.7-5 1.7-2 4.5-2 2.8 0 4.6 2 1.7 2 1.7 5zm-2.7-0.2q-0.1-2.1-0.9-3.5-0.9-1.3-2.7-1.3-1.7 0-2.6 1.3-0.8 1.3-0.8 3.5v0.2q0 2.2 0.8 3.5 0.9 1.4 2.6 1.4 1.8 0 2.7-1.4 0.8-1.3 0.9-3.5z"/>
	<path class="s1" d="m183.5 136.8v1.7l-1.5 0.3v11.8h-2.7l-5.6-9.3-0.1 0.1v7.3l1.5 0.3v1.7h-5.7v-1.7l1.5-0.3v-9.9l-1.5-0.3v-1.7h4.2l5.6 9.3h0.1v-7.3l-1.5-0.3v-1.7h5.7z"/>
	<path class="s0" d="m195.6 146.8c-1.6 0-3-1.4-3-3.1 0-1.7 1.4-3 3-3 1.6 0 2.9 1.3 2.9 3 0 1.7-1.3 3.1-2.9 3.1z"/>
	<path class="s1" d="m219.1 141.5h-2l-0.3-1.9q-0.4-0.4-1.1-0.6-0.6-0.2-1.4-0.2-1.8 0-2.8 1.3-1 1.3-1 3.4v0.5q0 2.1 1 3.4 1 1.3 2.7 1.3 0.8 0 1.5-0.2 0.7-0.3 1.1-0.7l0.2-1.8h2.1v2.7q-0.8 1-2.1 1.6-1.3 0.5-2.9 0.5-2.8 0-4.6-1.9-1.7-1.9-1.7-4.9v-0.5q0-3 1.7-4.9 1.8-2 4.6-2 1.6 0 2.9 0.6 1.3 0.6 2.1 1.6c0 0 0 2.7 0 2.7z"/>
	<path fill-rule="evenodd" class="s1" d="m220.2 149l1-0.2 4.2-12h2.8l4.2 12 1 0.2v1.6h-4.7v-1.6l1-0.2-0.6-1.9h-4.5l-0.6 1.9 0.9 0.2v1.6h-4.7zm5-4.1h3.2l-1.6-4.8c0 0-1.6 4.8-1.6 4.8z"/>
	<path class="s1" d="m244.8 141.2h-2.1l-0.4-1.9q-0.3-0.2-1-0.4-0.7-0.1-1.5-0.1-1.1 0-1.7 0.5-0.6 0.4-0.6 1.2 0 0.7 0.6 1.1 0.6 0.5 2.2 1 2.3 0.6 3.5 1.7 1.2 1 1.2 2.7c0 1.2-0.5 2.1-1.4 2.8q-1.4 1-3.7 1-1.7 0-3-0.5-1.3-0.5-2.2-1.4v-2.9h2.2l0.3 2q0.4 0.3 1.1 0.5 0.7 0.2 1.6 0.2 1.1 0 1.7-0.4 0.6-0.5 0.6-1.3 0-0.7-0.6-1.2-0.5-0.5-1.9-1-2.5-0.7-3.7-1.6-1.3-1-1.3-2.7 0-1.7 1.4-2.8 1.4-1 3.6-1.1 1.6 0 2.9 0.5 1.3 0.5 2.2 1.3v2.8z"/>
	<path class="s1" d="m258.2 136.8v3.7h-2.1l-0.1-1.5h-2.6v9.7l1.5 0.3v1.6h-5.7v-1.6l1.5-0.3v-9.7h-2.6l-0.1 1.5h-2.1v-3.7c0 0 12.3 0 12.3 0z"/>
	<path class="s1" d="m259.1 149l1.5-0.3v-9.9l-1.5-0.3v-1.7h11v3.8h-2.1l-0.2-1.6h-4.5v3.8h4.9v2.1h-4.9v3.8l1.5 0.3v1.6h-5.7z"/>
	<path class="s1" d="m276.6 136.8v1.7l-1.4 0.3v7.2q0 1.4 0.7 2 0.7 0.7 2 0.7 1.3 0 2-0.7 0.8-0.6 0.8-2v-7.2l-1.5-0.3v-1.7h5.7v1.7l-1.5 0.3v7.2q0 2.3-1.5 3.6-1.5 1.2-4 1.2-2.5 0-4-1.2-1.5-1.3-1.5-3.6v-7.2l-1.5-0.3v-1.7h5.7z"/>
	<path class="s1" d="m297.9 136.8v3.7h-2.2l-0.1-1.5h-2.5v9.7l1.5 0.3v1.6h-5.8v-1.6l1.5-0.3v-9.7h-2.5l-0.1 1.5h-2.1v-3.7c0 0 12.3 0 12.3 0z"/>
	<path class="s1" d="m304.3 136.8v1.7l-1.5 0.3v7.2q0 1.4 0.8 2 0.7 0.7 2 0.7 1.3 0 2-0.7 0.8-0.6 0.8-2v-7.2l-1.5-0.3v-1.7h5.7v1.7l-1.5 0.3v7.2q0 2.3-1.5 3.6-1.5 1.2-4 1.2-2.5 0-4-1.2-1.5-1.3-1.5-3.6v-7.2l-1.5-0.3v-1.7h5.7z"/>
	<path fill-rule="evenodd" class="s1" d="m319.6 136.8q2.4 0 3.7 1.1 1.3 1.1 1.3 3 0 1-0.5 1.8-0.6 0.8-1.7 1.2 1.2 0.4 1.8 1.2 0.5 0.9 0.5 2.1v0.7q0 0.5 0.2 0.7 0.2 0.3 0.6 0.3l0.3 0.1v1.6h-1.4q-1.4 0-1.9-0.7-0.5-0.7-0.5-1.9v-0.8q0-1-0.6-1.5-0.5-0.6-1.5-0.6h-2.3v3.6l1.5 0.3v1.6h-5.7v-1.6l1.5-0.3v-9.9l-1.5-0.3v-1.7h6.2zm-2 6.1h2q1.1 0 1.7-0.5 0.6-0.5 0.6-1.4 0-0.9-0.6-1.5-0.6-0.5-1.7-0.5h-2z"/>
	<path fill-rule="evenodd" class="s1" d="m326.6 149l1-0.2 4.2-12h2.8l4.2 12 1 0.2v1.6h-4.7v-1.6l0.9-0.2-0.6-1.9h-4.4l-0.7 1.9 1 0.2v1.6h-4.7zm8.2-4.1l-1.6-4.8-1.6 4.8z"/>
</svg>