<svg version="1.1" id="Layer_1" xmlns="http://www.w3.org/2000/svg" xmlns:xlink="http://www.w3.org/1999/xlink" x="0px" y="0px"
	 width="100%" viewBox="0 0 1200 465" enable-background="new 0 0 1200 465" xml:space="preserve">
<path fill="#FFFFFF" opacity="1.000000" stroke="none" 
	d="
M820.000000,466.000000 
	C546.666687,466.000000 273.833405,466.000000 1.000073,466.000000 
	C1.000049,311.000061 1.000049,156.000107 1.000024,1.000115 
	C400.999908,1.000077 800.999817,1.000077 1200.999756,1.000038 
	C1200.999878,155.999878 1200.999878,310.999756 1201.000000,465.999817 
	C1074.166626,466.000000 947.333313,466.000000 820.000000,466.000000 
M274.191040,248.779816 
	C248.209442,261.774048 222.785370,260.818359 199.262512,243.666656 
	C175.787766,226.550079 167.591125,202.408646 171.588928,173.760361 
	C133.571487,188.857346 103.685883,238.665405 123.086800,290.084320 
	C142.161301,340.638123 200.058884,364.086884 248.702194,340.964478 
	C298.889435,317.108124 309.638489,261.691467 297.152405,230.773026 
	C289.842499,236.538467 282.329651,242.463959 274.191040,248.779816 
M428.799500,276.533447 
	C413.392944,284.002136 399.635895,278.833557 393.715820,263.427734 
	C393.367615,262.521606 392.315918,261.241638 391.573303,261.229248 
	C382.497986,261.077545 373.419220,261.130585 364.010895,261.130585 
	C365.925598,274.709564 371.435974,285.545227 382.499847,292.495697 
	C401.754608,304.591736 422.202637,305.323792 442.530609,295.707306 
	C456.779388,288.966675 463.490112,276.578125 463.458710,260.917511 
	C463.427307,245.257126 456.004242,233.889786 441.844147,227.262466 
	C437.055878,225.021423 431.835083,223.684708 426.775055,222.048859 
	C419.026611,219.543900 411.115265,217.481583 403.518463,214.587234 
	C396.751465,212.009048 393.535767,206.646698 394.092285,200.797852 
	C394.681213,194.608307 399.513550,189.605240 406.414307,188.040466 
	C419.464020,185.081390 427.941742,189.811508 432.729828,202.794754 
	C442.103790,202.794754 451.508026,202.794754 461.273224,202.794754 
	C459.725098,190.378174 454.352386,180.644928 444.361603,173.667160 
	C427.164764,161.656555 398.079559,162.371826 381.125793,174.720276 
	C361.510559,189.007217 359.750458,223.295258 386.324310,235.970078 
	C389.760498,237.609009 393.388397,238.892303 397.012115,240.082626 
	C406.485931,243.194565 416.283691,245.504242 425.441101,249.350693 
	C437.890778,254.580078 439.492523,267.513489 428.799500,276.533447 
M1042.826294,276.662170 
	C1023.427734,284.367340 1006.694397,271.068146 1005.346741,256.678528 
	C1031.472900,256.678528 1057.560669,256.678528 1083.514160,256.678528 
	C1090.963135,230.325287 1072.429688,200.325668 1045.335083,194.207870 
	C1013.451721,187.008804 983.005432,206.734909 978.162781,237.728653 
	C972.997620,270.786438 993.723267,298.290161 1026.382568,301.718231 
	C1051.197754,304.322906 1080.477783,285.983185 1081.357300,267.081024 
	C1074.529541,267.081024 1067.701538,267.291382 1060.894043,267.007050 
	C1056.356812,266.817566 1052.627930,267.250000 1049.807739,271.544189 
	C1048.447144,273.615997 1045.656128,274.748291 1042.826294,276.662170 
M251.828674,175.543442 
	C273.633453,187.154129 288.441162,204.852341 296.926208,228.132446 
	C313.130951,210.086044 315.049225,175.953415 301.478638,152.680908 
	C285.462219,125.213951 255.411026,112.133568 224.261108,119.070412 
	C198.351105,124.840370 174.629730,149.296066 172.456772,172.776611 
	C199.111511,161.988220 225.350906,162.595627 251.828674,175.543442 
M584.926758,238.714203 
	C579.635681,210.403488 559.023987,192.834305 531.161926,192.885651 
	C508.315491,192.927750 488.952057,205.761002 480.695709,226.332413 
	C472.415131,246.964081 477.268860,271.668579 492.517273,286.501923 
	C508.393799,301.946289 532.723633,306.130127 553.252991,297.399963 
	C571.867798,289.484009 588.583618,268.497589 584.926758,238.714203 
M240.571426,179.000000 
	C236.396103,179.175552 232.490997,178.837250 230.742889,174.098480 
	C230.598862,173.708084 230.085266,173.257233 229.682846,173.188400 
	C223.536804,172.137253 217.376053,170.313705 211.228058,170.347931 
	C203.406464,170.391479 195.593292,171.950775 187.776489,172.856613 
	C186.738358,175.432373 185.332947,178.252853 183.765121,178.346252 
	C177.569336,178.715256 177.723602,182.595886 177.976166,186.954163 
	C178.110748,189.276596 177.768082,191.641296 178.045486,193.938019 
	C178.782288,200.038193 179.523987,206.153259 180.685715,212.181076 
	C181.428452,216.034836 188.145905,216.478806 186.730972,221.934509 
	C186.686066,222.107635 187.769409,222.861313 188.322861,222.856873 
	C193.515656,222.815231 195.012527,226.256180 195.408249,230.752274 
	C199.720703,230.800217 202.772095,232.071381 203.231476,236.807190 
	C203.333008,237.854004 204.665451,238.982208 205.693100,239.695450 
	C207.669312,241.067123 209.832870,242.168854 210.900803,242.790253 
	C213.712357,242.984665 217.136719,242.818451 217.226791,243.289627 
	C218.197845,248.369324 222.113068,246.352341 225.012146,247.098694 
	C229.396027,248.227295 236.502640,243.901093 237.439606,254.151169 
	C239.985596,247.623428 244.997040,247.918869 249.699661,247.641968 
	C252.290436,247.489441 255.024597,247.163956 257.479309,247.776794 
	C266.357941,249.993484 270.299316,241.574173 276.953003,239.087601 
	C277.653656,238.825760 278.218018,238.185715 278.822266,237.692474 
	C278.923737,237.609650 278.936829,237.380157 278.937805,237.218109 
	C278.967773,232.209351 282.582672,231.100861 286.997253,230.482864 
	C286.997253,227.675995 287.254364,225.010391 286.890015,222.432602 
	C286.704681,221.121124 285.676361,219.343246 284.556213,218.849945 
	C279.491486,216.619492 278.415588,212.732346 279.205963,207.797928 
	C279.382629,206.695114 279.616089,204.611938 279.545929,204.599899 
	C273.960052,203.643173 271.658447,199.301987 268.827393,195.137772 
	C267.447266,193.107742 264.347168,192.247025 261.715790,190.671494 
	C259.304779,192.276443 256.682770,193.610474 255.421158,188.495483 
	C255.153336,187.409592 252.726593,186.924805 251.398483,186.011856 
	C250.164169,185.163422 248.298996,184.277573 248.052139,183.121841 
	C247.215683,179.205978 244.765244,178.593491 240.571426,179.000000 
M712.998901,296.623352 
	C714.980835,295.400665 717.096252,294.349396 718.922668,292.927002 
	C729.361633,284.797150 733.279907,274.102936 731.051025,261.133972 
	C728.986633,249.122513 720.891418,242.844040 709.939514,239.644638 
	C704.682129,238.108795 699.232788,237.227203 693.866394,236.067734 
	C688.824707,234.978394 683.682129,234.233337 678.756287,232.760361 
	C671.871887,230.701675 669.545044,224.075134 673.608215,219.149567 
	C680.532349,210.755859 698.834717,213.281204 702.506653,223.418060 
	C703.728394,226.791000 705.201233,227.654968 708.482361,227.515457 
	C714.304138,227.267929 720.144470,227.481369 725.976318,227.426407 
	C727.198547,227.414886 728.417664,227.076584 729.736267,226.873810 
	C727.885315,214.311569 722.522339,204.245316 711.502502,198.655899 
	C693.662598,189.607239 675.612305,190.212646 658.848511,201.306564 
	C647.877258,208.567093 643.754700,219.706619 646.070618,232.726685 
	C648.191223,244.648804 656.577637,250.730011 667.439514,254.084473 
	C669.975830,254.867737 672.596313,255.390991 675.194275,255.959717 
	C682.996216,257.667694 690.935303,258.918549 698.542725,261.253693 
	C701.189453,262.066132 703.848511,265.166107 705.021362,267.864777 
	C706.500793,271.268738 704.716797,274.628937 701.683594,277.044922 
	C692.571594,284.302673 674.926208,280.058014 670.253418,269.532654 
	C669.732361,268.358948 668.548096,266.639771 667.630371,266.613617 
	C659.555359,266.383728 651.471130,266.480408 643.032410,266.480408 
	C645.152405,281.010345 652.250427,291.167358 664.841309,296.845947 
	C680.514832,303.914795 696.479553,303.726532 712.998901,296.623352 
M869.404724,221.993729 
	C858.967041,244.214203 862.616028,269.783112 878.547180,286.055969 
	C894.237061,302.082520 918.985046,306.585144 940.467163,296.908264 
	C955.629089,290.078400 965.050964,278.307007 969.346619,261.426514 
	C960.888611,261.426514 953.112061,261.521729 945.340027,261.375854 
	C942.542297,261.323364 941.002136,262.094208 939.598694,264.788635 
	C934.278625,275.002716 923.448853,279.810150 912.234314,277.414520 
	C897.020081,274.164459 887.767883,259.339752 890.225769,242.150482 
	C892.079590,229.186508 900.168213,219.617661 911.545654,217.296555 
	C920.991028,215.369644 934.148926,217.836273 940.213318,231.160019 
	C940.630127,232.075745 942.198425,232.993713 943.247131,233.012238 
	C951.715393,233.161804 960.187500,233.096085 968.687927,233.096085 
	C967.208862,215.628601 949.755005,198.088577 930.281433,194.110855 
	C904.837585,188.913651 881.625061,199.359879 869.404724,221.993729 
M781.192261,256.481140 
	C781.192261,243.402328 781.192261,230.323517 781.192261,216.894180 
	C789.469055,216.894180 796.915771,216.894180 804.590332,216.894180 
	C804.590332,209.309326 804.590332,202.093689 804.590332,194.244400 
	C796.743652,194.244400 789.181396,194.244400 780.980469,194.244400 
	C780.980469,184.742401 780.980469,175.858093 780.980469,167.239777 
	C771.741821,167.239777 763.172241,167.239777 754.106323,167.239777 
	C754.106323,176.396179 754.106323,185.156204 754.106323,194.485352 
	C748.037415,194.485352 742.464478,194.485352 736.728821,194.485352 
	C736.728821,202.300430 736.728821,209.520187 736.728821,217.198578 
	C742.683594,217.198578 748.285095,217.198578 754.267639,217.198578 
	C754.267639,232.130478 754.196472,246.602707 754.302490,261.073669 
	C754.345154,266.892395 754.318970,272.773163 755.132446,278.511108 
	C756.541382,288.449738 762.056519,296.091858 771.997620,297.977203 
	C782.607666,299.989410 793.595825,300.007568 804.664001,300.916351 
	C804.664001,292.313538 804.664001,285.219147 804.664001,277.518005 
	C802.142273,277.518005 799.846436,277.530212 797.550720,277.514618 
	C795.219055,277.498810 792.878601,277.575439 790.557678,277.401184 
	C784.307983,276.932037 781.864624,274.662476 781.339233,268.463531 
	C781.030640,264.821564 781.224548,261.136963 781.192261,256.481140 
M627.921570,182.503586 
	C627.921570,177.398926 627.921570,172.294266 627.921570,167.128937 
	C618.658630,167.128937 610.080933,167.128937 601.283447,167.128937 
	C601.283447,211.463455 601.283447,255.510986 601.283447,299.728577 
	C610.219360,299.728577 618.905823,299.728577 627.921570,299.728577 
	C627.921570,260.732330 627.921570,222.117157 627.921570,182.503586 
M821.084412,212.501862 
	C821.084412,241.563065 821.084412,270.624268 821.084412,299.862885 
	C830.249390,299.862885 838.817444,299.862885 847.579956,299.862885 
	C847.579956,264.651794 847.579956,229.692749 847.579956,194.751877 
	C838.615295,194.751877 830.041931,194.751877 821.084473,194.751877 
	C821.084473,200.570129 821.084473,206.036545 821.084412,212.501862 
M823.297424,156.813126 
	C817.027649,165.000595 817.783203,174.035767 825.212524,179.714645 
	C832.033386,184.928421 841.750183,183.514481 846.976440,176.547653 
	C851.538696,170.466003 850.895264,161.819489 845.482300,156.468903 
	C839.574707,150.629379 831.370239,150.556992 823.297424,156.813126 
z"/>
<path fill="#694CE3" opacity="1.000000" stroke="none" 
	d="
M274.503937,248.584625 
	C282.329651,242.463959 289.842499,236.538467 297.152405,230.773026 
	C309.638489,261.691467 298.889435,317.108124 248.702194,340.964478 
	C200.058884,364.086884 142.161301,340.638123 123.086800,290.084320 
	C103.685883,238.665405 133.571487,188.857346 171.588928,173.760361 
	C167.591125,202.408646 175.787766,226.550079 199.262512,243.666656 
	C222.785370,260.818359 248.209442,261.774048 274.503937,248.584625 
z"/>
<path fill="#694DE3" opacity="1.000000" stroke="none" 
	d="
M429.104736,276.310608 
	C439.492523,267.513489 437.890778,254.580078 425.441101,249.350693 
	C416.283691,245.504242 406.485931,243.194565 397.012115,240.082626 
	C393.388397,238.892303 389.760498,237.609009 386.324310,235.970078 
	C359.750458,223.295258 361.510559,189.007217 381.125793,174.720276 
	C398.079559,162.371826 427.164764,161.656555 444.361603,173.667160 
	C454.352386,180.644928 459.725098,190.378174 461.273224,202.794754 
	C451.508026,202.794754 442.103790,202.794754 432.729828,202.794754 
	C427.941742,189.811508 419.464020,185.081390 406.414307,188.040466 
	C399.513550,189.605240 394.681213,194.608307 394.092285,200.797852 
	C393.535767,206.646698 396.751465,212.009048 403.518463,214.587234 
	C411.115265,217.481583 419.026611,219.543900 426.775055,222.048859 
	C431.835083,223.684708 437.055878,225.021423 441.844147,227.262466 
	C456.004242,233.889786 463.427307,245.257126 463.458710,260.917511 
	C463.490112,276.578125 456.779388,288.966675 442.530609,295.707306 
	C422.202637,305.323792 401.754608,304.591736 382.499847,292.495697 
	C371.435974,285.545227 365.925598,274.709564 364.010895,261.130585 
	C373.419220,261.130585 382.497986,261.077545 391.573303,261.229248 
	C392.315918,261.241638 393.367615,262.521606 393.715820,263.427734 
	C399.635895,278.833557 413.392944,284.002136 429.104736,276.310608 
z"/>
<path fill="#6A4DE3" opacity="1.000000" stroke="none" 
	d="
M1043.169434,276.484070 
	C1045.656128,274.748291 1048.447144,273.615997 1049.807739,271.544189 
	C1052.627930,267.250000 1056.356812,266.817566 1060.894043,267.007050 
	C1067.701538,267.291382 1074.529541,267.081024 1081.357300,267.081024 
	C1080.477783,285.983185 1051.197754,304.322906 1026.382568,301.718231 
	C993.723267,298.290161 972.997620,270.786438 978.162781,237.728653 
	C983.005432,206.734909 1013.451721,187.008804 1045.335083,194.207870 
	C1072.429688,200.325668 1090.963135,230.325287 1083.514160,256.678528 
	C1057.560669,256.678528 1031.472900,256.678528 1005.346741,256.678528 
	C1006.694397,271.068146 1023.427734,284.367340 1043.169434,276.484070 
M1054.768921,228.939148 
	C1048.285278,218.379211 1038.923950,214.130646 1026.303833,216.020676 
	C1016.138916,217.543030 1007.904175,225.285110 1005.414490,235.877167 
	C1022.541626,235.877167 1039.604614,235.877167 1057.307373,235.877167 
	C1056.491333,233.572052 1055.792969,231.598907 1054.768921,228.939148 
z"/>
<path fill="#694CE3" opacity="1.000000" stroke="none" 
	d="
M251.501160,175.363434 
	C225.350906,162.595627 199.111511,161.988220 172.456772,172.776611 
	C174.629730,149.296066 198.351105,124.840370 224.261108,119.070412 
	C255.411026,112.133568 285.462219,125.213951 301.478638,152.680908 
	C315.049225,175.953415 313.130951,210.086044 296.926208,228.132446 
	C288.441162,204.852341 273.633453,187.154129 251.501160,175.363434 
z"/>
<path fill="#694CE3" opacity="1.000000" stroke="none" 
	d="
M584.968262,239.151672 
	C588.583618,268.497589 571.867798,289.484009 553.252991,297.399963 
	C532.723633,306.130127 508.393799,301.946289 492.517273,286.501923 
	C477.268860,271.668579 472.415131,246.964081 480.695709,226.332413 
	C488.952057,205.761002 508.315491,192.927750 531.161926,192.885651 
	C559.023987,192.834305 579.635681,210.403488 584.968262,239.151672 
M514.332031,272.251556 
	C521.267639,277.424927 528.970703,279.236938 537.419067,277.260529 
	C552.370972,273.762726 560.832825,260.078674 558.938110,242.641479 
	C557.513367,229.529800 547.935547,218.872513 535.948364,217.060669 
	C522.848022,215.080566 511.303772,221.183899 506.076416,232.853592 
	C500.125153,246.139343 503.188599,261.695679 514.332031,272.251556 
z"/>
<path fill="#FFFFFF" opacity="1.000000" stroke="none" 
	d="
M241.017181,179.000000 
	C244.765244,178.593491 247.215683,179.205978 248.052139,183.121841 
	C248.298996,184.277573 250.164169,185.163422 251.398483,186.011856 
	C252.726593,186.924805 255.153336,187.409592 255.421158,188.495483 
	C256.682770,193.610474 259.304779,192.276443 261.715790,190.671494 
	C264.347168,192.247025 267.447266,193.107742 268.827393,195.137772 
	C271.658447,199.301987 273.960052,203.643173 279.545929,204.599899 
	C279.616089,204.611938 279.382629,206.695114 279.205963,207.797928 
	C278.415588,212.732346 279.491486,216.619492 284.556213,218.849945 
	C285.676361,219.343246 286.704681,221.121124 286.890015,222.432602 
	C287.254364,225.010391 286.997253,227.675995 286.997253,230.482864 
	C282.582672,231.100861 278.967773,232.209351 278.937805,237.218109 
	C278.936829,237.380157 278.923737,237.609650 278.822266,237.692474 
	C278.218018,238.185715 277.653656,238.825760 276.953003,239.087601 
	C270.299316,241.574173 266.357941,249.993484 257.479309,247.776794 
	C255.024597,247.163956 252.290436,247.489441 249.699661,247.641968 
	C244.997040,247.918869 239.985596,247.623428 237.439606,254.151169 
	C236.502640,243.901093 229.396027,248.227295 225.012146,247.098694 
	C222.113068,246.352341 218.197845,248.369324 217.226791,243.289627 
	C217.136719,242.818451 213.712357,242.984665 210.900803,242.790253 
	C209.832870,242.168854 207.669312,241.067123 205.693100,239.695450 
	C204.665451,238.982208 203.333008,237.854004 203.231476,236.807190 
	C202.772095,232.071381 199.720703,230.800217 195.408249,230.752274 
	C195.012527,226.256180 193.515656,222.815231 188.322861,222.856873 
	C187.769409,222.861313 186.686066,222.107635 186.730972,221.934509 
	C188.145905,216.478806 181.428452,216.034836 180.685715,212.181076 
	C179.523987,206.153259 178.782288,200.038193 178.045486,193.938019 
	C177.768082,191.641296 178.110748,189.276596 177.976166,186.954163 
	C177.723602,182.595886 177.569336,178.715256 183.765121,178.346252 
	C185.332947,178.252853 186.738358,175.432373 187.776489,172.856613 
	C195.593292,171.950775 203.406464,170.391479 211.228058,170.347931 
	C217.376053,170.313705 223.536804,172.137253 229.682846,173.188400 
	C230.085266,173.257233 230.598862,173.708084 230.742889,174.098480 
	C232.490997,178.837250 236.396103,179.175552 241.017181,179.000000 
z"/>
<path fill="#694DE3" opacity="1.000000" stroke="none" 
	d="
M712.660828,296.788452 
	C696.479553,303.726532 680.514832,303.914795 664.841309,296.845947 
	C652.250427,291.167358 645.152405,281.010345 643.032410,266.480408 
	C651.471130,266.480408 659.555359,266.383728 667.630371,266.613617 
	C668.548096,266.639771 669.732361,268.358948 670.253418,269.532654 
	C674.926208,280.058014 692.571594,284.302673 701.683594,277.044922 
	C704.716797,274.628937 706.500793,271.268738 705.021362,267.864777 
	C703.848511,265.166107 701.189453,262.066132 698.542725,261.253693 
	C690.935303,258.918549 682.996216,257.667694 675.194275,255.959717 
	C672.596313,255.390991 669.975830,254.867737 667.439514,254.084473 
	C656.577637,250.730011 648.191223,244.648804 646.070618,232.726685 
	C643.754700,219.706619 647.877258,208.567093 658.848511,201.306564 
	C675.612305,190.212646 693.662598,189.607239 711.502502,198.655899 
	C722.522339,204.245316 727.885315,214.311569 729.736267,226.873810 
	C728.417664,227.076584 727.198547,227.414886 725.976318,227.426407 
	C720.144470,227.481369 714.304138,227.267929 708.482361,227.515457 
	C705.201233,227.654968 703.728394,226.791000 702.506653,223.418060 
	C698.834717,213.281204 680.532349,210.755859 673.608215,219.149567 
	C669.545044,224.075134 671.871887,230.701675 678.756287,232.760361 
	C683.682129,234.233337 688.824707,234.978394 693.866394,236.067734 
	C699.232788,237.227203 704.682129,238.108795 709.939514,239.644638 
	C720.891418,242.844040 728.986633,249.122513 731.051025,261.133972 
	C733.279907,274.102936 729.361633,284.797150 718.922668,292.927002 
	C717.096252,294.349396 714.980835,295.400665 712.660828,296.788452 
z"/>
<path fill="#694CE3" opacity="1.000000" stroke="none" 
	d="
M869.587830,221.667908 
	C881.625061,199.359879 904.837585,188.913651 930.281433,194.110855 
	C949.755005,198.088577 967.208862,215.628601 968.687927,233.096085 
	C960.187500,233.096085 951.715393,233.161804 943.247131,233.012238 
	C942.198425,232.993713 940.630127,232.075745 940.213318,231.160019 
	C934.148926,217.836273 920.991028,215.369644 911.545654,217.296555 
	C900.168213,219.617661 892.079590,229.186508 890.225769,242.150482 
	C887.767883,259.339752 897.020081,274.164459 912.234314,277.414520 
	C923.448853,279.810150 934.278625,275.002716 939.598694,264.788635 
	C941.002136,262.094208 942.542297,261.323364 945.340027,261.375854 
	C953.112061,261.521729 960.888611,261.426514 969.346619,261.426514 
	C965.050964,278.307007 955.629089,290.078400 940.467163,296.908264 
	C918.985046,306.585144 894.237061,302.082520 878.547180,286.055969 
	C862.616028,269.783112 858.967041,244.214203 869.587830,221.667908 
z"/>
<path fill="#694DE3" opacity="1.000000" stroke="none" 
	d="
M781.192322,256.976349 
	C781.224548,261.136963 781.030640,264.821564 781.339233,268.463531 
	C781.864624,274.662476 784.307983,276.932037 790.557678,277.401184 
	C792.878601,277.575439 795.219055,277.498810 797.550720,277.514618 
	C799.846436,277.530212 802.142273,277.518005 804.664001,277.518005 
	C804.664001,285.219147 804.664001,292.313538 804.664001,300.916351 
	C793.595825,300.007568 782.607666,299.989410 771.997620,297.977203 
	C762.056519,296.091858 756.541382,288.449738 755.132446,278.511108 
	C754.318970,272.773163 754.345154,266.892395 754.302490,261.073669 
	C754.196472,246.602707 754.267639,232.130478 754.267639,217.198578 
	C748.285095,217.198578 742.683594,217.198578 736.728821,217.198578 
	C736.728821,209.520187 736.728821,202.300430 736.728821,194.485352 
	C742.464478,194.485352 748.037415,194.485352 754.106323,194.485352 
	C754.106323,185.156204 754.106323,176.396179 754.106323,167.239777 
	C763.172241,167.239777 771.741821,167.239777 780.980469,167.239777 
	C780.980469,175.858093 780.980469,184.742401 780.980469,194.244400 
	C789.181396,194.244400 796.743652,194.244400 804.590332,194.244400 
	C804.590332,202.093689 804.590332,209.309326 804.590332,216.894180 
	C796.915771,216.894180 789.469055,216.894180 781.192261,216.894180 
	C781.192261,230.323517 781.192261,243.402328 781.192322,256.976349 
z"/>
<path fill="#694CE3" opacity="1.000000" stroke="none" 
	d="
M627.921570,183.002777 
	C627.921570,222.117157 627.921570,260.732330 627.921570,299.728577 
	C618.905823,299.728577 610.219360,299.728577 601.283447,299.728577 
	C601.283447,255.510986 601.283447,211.463455 601.283447,167.128937 
	C610.080933,167.128937 618.658630,167.128937 627.921570,167.128937 
	C627.921570,172.294266 627.921570,177.398926 627.921570,183.002777 
z"/>
<path fill="#694CE3" opacity="1.000000" stroke="none" 
	d="
M821.084473,212.002411 
	C821.084473,206.036545 821.084473,200.570129 821.084473,194.751877 
	C830.041931,194.751877 838.615295,194.751877 847.579956,194.751877 
	C847.579956,229.692749 847.579956,264.651794 847.579956,299.862885 
	C838.817444,299.862885 830.249390,299.862885 821.084412,299.862885 
	C821.084412,270.624268 821.084412,241.563065 821.084473,212.002411 
z"/>
<path fill="#6A4DE3" opacity="1.000000" stroke="none" 
	d="
M823.549805,156.545364 
	C831.370239,150.556992 839.574707,150.629379 845.482300,156.468903 
	C850.895264,161.819489 851.538696,170.466003 846.976440,176.547653 
	C841.750183,183.514481 832.033386,184.928421 825.212524,179.714645 
	C817.783203,174.035767 817.027649,165.000595 823.549805,156.545364 
z"/>
<path fill="#FDFCFD" opacity="1.000000" stroke="none" 
	d="
M1054.931641,229.282440 
	C1055.792969,231.598907 1056.491333,233.572052 1057.307373,235.877167 
	C1039.604614,235.877167 1022.541626,235.877167 1005.414490,235.877167 
	C1007.904175,225.285110 1016.138916,217.543030 1026.303833,216.020676 
	C1038.923950,214.130646 1048.285278,218.379211 1054.931641,229.282440 
z"/>
<path fill="#FEFDFE" opacity="1.000000" stroke="none" 
	d="
M514.041138,272.036194 
	C503.188599,261.695679 500.125153,246.139343 506.076416,232.853592 
	C511.303772,221.183899 522.848022,215.080566 535.948364,217.060669 
	C547.935547,218.872513 557.513367,229.529800 558.938110,242.641479 
	C560.832825,260.078674 552.370972,273.762726 537.419067,277.260529 
	C528.970703,279.236938 521.267639,277.424927 514.041138,272.036194 
z"/>
</svg>