<?xml version="1.0" encoding="UTF-8" standalone="no"?>
<!-- Created with Inkscape (http://www.inkscape.org/) -->

<svg
   xmlns:dc="http://purl.org/dc/elements/1.1/"
   xmlns:cc="http://creativecommons.org/ns#"
   xmlns:rdf="http://www.w3.org/1999/02/22-rdf-syntax-ns#"
   xmlns:svg="http://www.w3.org/2000/svg"
   xmlns="http://www.w3.org/2000/svg"
   xmlns:sodipodi="http://sodipodi.sourceforge.net/DTD/sodipodi-0.dtd"
   xmlns:inkscape="http://www.inkscape.org/namespaces/inkscape"
   width="242"
   height="267"
   id="svg2"
   version="1.1"
   inkscape:version="0.47 r22583"
   sodipodi:docname="Tecumseh_Products_logo.svg">
  <defs
     id="defs4">
    <inkscape:perspective
       sodipodi:type="inkscape:persp3d"
       inkscape:vp_x="0 : 526.18109 : 1"
       inkscape:vp_y="0 : 1000 : 0"
       inkscape:vp_z="744.09448 : 526.18109 : 1"
       inkscape:persp3d-origin="372.04724 : 350.78739 : 1"
       id="perspective10" />
    <inkscape:perspective
       id="perspective2884"
       inkscape:persp3d-origin="0.5 : 0.33333333 : 1"
       inkscape:vp_z="1 : 0.5 : 1"
       inkscape:vp_y="0 : 1000 : 0"
       inkscape:vp_x="0 : 0.5 : 1"
       sodipodi:type="inkscape:persp3d" />
    <inkscape:perspective
       id="perspective2959"
       inkscape:persp3d-origin="0.5 : 0.33333333 : 1"
       inkscape:vp_z="1 : 0.5 : 1"
       inkscape:vp_y="0 : 1000 : 0"
       inkscape:vp_x="0 : 0.5 : 1"
       sodipodi:type="inkscape:persp3d" />
    <inkscape:perspective
       id="perspective3846"
       inkscape:persp3d-origin="0.5 : 0.33333333 : 1"
       inkscape:vp_z="1 : 0.5 : 1"
       inkscape:vp_y="0 : 1000 : 0"
       inkscape:vp_x="0 : 0.5 : 1"
       sodipodi:type="inkscape:persp3d" />
    <inkscape:perspective
       id="perspective4081"
       inkscape:persp3d-origin="0.5 : 0.33333333 : 1"
       inkscape:vp_z="1 : 0.5 : 1"
       inkscape:vp_y="0 : 1000 : 0"
       inkscape:vp_x="0 : 0.5 : 1"
       sodipodi:type="inkscape:persp3d" />
    <inkscape:perspective
       id="perspective4168"
       inkscape:persp3d-origin="0.5 : 0.33333333 : 1"
       inkscape:vp_z="1 : 0.5 : 1"
       inkscape:vp_y="0 : 1000 : 0"
       inkscape:vp_x="0 : 0.5 : 1"
       sodipodi:type="inkscape:persp3d" />
  </defs>
  <sodipodi:namedview
     id="base"
     pagecolor="#ffffff"
     bordercolor="#666666"
     borderopacity="1.0"
     inkscape:pageopacity="0.0"
     inkscape:pageshadow="2"
     inkscape:zoom="1.7660377"
     inkscape:cx="121"
     inkscape:cy="139.31643"
     inkscape:document-units="px"
     inkscape:current-layer="layer1"
     showgrid="false"
     inkscape:window-width="1024"
     inkscape:window-height="689"
     inkscape:window-x="0"
     inkscape:window-y="27"
     inkscape:window-maximized="1"
     showborder="true"
     inkscape:showpageshadow="false" />
  <metadata
     id="metadata7">
    <rdf:RDF>
      <cc:Work
         rdf:about="">
        <dc:format>image/svg+xml</dc:format>
        <dc:type
           rdf:resource="http://purl.org/dc/dcmitype/StillImage" />
        <dc:title></dc:title>
      </cc:Work>
    </rdf:RDF>
  </metadata>
  <g
     inkscape:label="Layer_1"
     inkscape:groupmode="layer"
     id="layer1"
     style="display:inline"
     transform="translate(-281.02947,-580.88111)">
    <g
       id="g4199"
       transform="matrix(0.1790849,0,0,0.17892016,330.21118,586.02896)">
      <g
         transform="translate(41.69418,8.338836)"
         id="g4176"
         style="display:inline">
        <path
           style="font-size:72px;font-style:normal;font-variant:normal;font-weight:normal;font-stretch:normal;text-align:start;line-height:125%;writing-mode:lr-tb;text-anchor:start;fill:#000000;fill-opacity:1;stroke:none;font-family:Arial;-inkscape-font-specification:Arial"
           d="m 784.4361,1022.1051 c -4.45315,2e-4 -8.78908,1.1407 -13.03125,3.4376 -4.2422,2.2735 -7.54688,5.547 -9.9375,9.8124 -2.36719,4.2423 -3.5625,8.6641 -3.5625,13.2813 0,4.5703 1.15624,8.9688 3.5,13.1875 2.34374,4.2188 5.61718,7.5001 9.8125,9.8438 4.21873,2.3203 8.62498,3.4687 13.21875,3.4687 4.59372,0 8.99216,-1.1483 13.1875,-3.4687 4.21871,-2.3437 7.49214,-5.625 9.8125,-9.8438 2.3437,-4.2187 3.5312,-8.6172 3.53125,-13.1875 -5e-5,-4.6172 -1.19536,-9.039 -3.5625,-13.2813 -2.36723,-4.2654 -5.66411,-7.5389 -9.90625,-9.8124 -4.24222,-2.2969 -8.60941,-3.4375 -13.0625,-3.4376 z m 0,4.375 c 3.70309,0 7.3359,0.9531 10.875,2.875 3.53902,1.8986 6.28121,4.6563 8.25,8.2188 1.99214,3.5391 2.99995,7.2188 3,11.0625 -5e-5,3.8203 -0.96098,7.4844 -2.90625,11 -1.94535,3.4922 -4.70317,6.2188 -8.21875,8.1875 -3.51566,1.9453 -7.17972,2.9375 -11,2.9375 -3.82034,0 -7.48439,-0.9922 -11,-2.9375 -3.51563,-1.9687 -6.25001,-4.6953 -8.21875,-8.1875 -1.94532,-3.5156 -2.90625,-7.1797 -2.90625,-11 0,-3.8437 0.97656,-7.5234 2.96875,-11.0625 1.99218,-3.5625 4.76562,-6.3202 8.28125,-8.2188 3.53905,-1.9219 7.14841,-2.875 10.875,-2.875 z"
           id="path3773" />
        <path
           style="font-size:72px;font-style:normal;font-variant:normal;font-weight:normal;font-stretch:normal;text-align:start;line-height:125%;writing-mode:lr-tb;text-anchor:start;fill:#000000;fill-opacity:1;stroke:none;font-family:Arial;-inkscape-font-specification:Arial"
           d="m 772.8111,1034.7614 0,28.5313 4.59375,0 0,-12.125 2.71875,0 c 1.61716,0 2.84372,0.3125 3.6875,0.9687 1.21872,0.8907 2.82029,3.1172 4.8125,6.6563 l 2.53125,4.5 5.625,0 -3.46875,-5.5938 c -1.66409,-2.6484 -3.07034,-4.5312 -4.21875,-5.6562 -0.6094,-0.5861 -1.42971,-1.0781 -2.4375,-1.5 2.46091,-0.1875 4.42966,-1.0781 5.90625,-2.625 1.49997,-1.547 2.24997,-3.3516 2.25,-5.4376 -3e-5,-1.4765 -0.45317,-2.875 -1.34375,-4.1874 -0.89066,-1.3126 -2.06254,-2.2345 -3.5625,-2.75 -1.50003,-0.539 -3.92971,-0.7813 -7.28125,-0.7813 l -9.8125,0 z m 4.59375,3.8437 5.25,0 c 2.24997,0 3.77341,0.172 4.59375,0.5 0.84372,0.3281 1.49997,0.8204 1.96875,1.5 0.46872,0.6564 0.71872,1.4064 0.71875,2.25 -3e-5,1.3126 -0.4844,2.3907 -1.46875,3.1876 -0.96096,0.7969 -2.7969,1.1874 -5.46875,1.1874 l -5.59375,0 0,-8.625 z"
           id="path3769" />
      </g>
      <path
         id="path4117"
         d="m 274.98879,-23.163883 c -19.7313,0.11069 -38.546,0.70502 -53.9062,1.8125 -47.7317,3.44149 -102.59199,10.62167 -141.062588,18.4374998 l -11.0937,2.24999998 -14.4375,11.84375022 c -25.933899,21.27298 -30.933399,25.67894 -30.906199,27.34375 0.013,0.903 3.6021,4.20897 7.937399,7.34375 l 7.875,5.71875 31.3438,-3.90625 c 158.698488,-19.65882 249.264188,-19.79269 346.343748,-0.53125 30.5922,6.06977 70.481,16.39943 77.625,20.09375 3.56,1.84096 6.58675,5.82482 7.96875,10.4375 2.1876,7.30186 -3.18165,15.86466 -11.34375,18.0625 -3.7031,0.99714 -5.2655,0.75713 -15.1875,-2.40625 -54.8702,-17.49402 -133.90816,-25.81866 -231.06246,-24.3125 -65.0865,1.00902 -114.0275,4.85241 -162.343788,12.75 l -18.3438,3 -20.9062,18.500003 c -11.5048,10.17693 -20.906199,18.94615 -20.906199,19.49999 0,0.99652 6.4418,4.15725 23.093699,11.28125 l 8.5625,3.65625 14.9375,-2.9375 c 61.588088,-12.1778 158.732788,-19.15752 236.624988,-17 52.98901,1.46773 90.02782,6.1818 118.53126,15.0625 14.9847,4.66874 21.3891,10.87723 19.8125,19.28125 -0.7055,3.76046 -4.49065,8.92202 -7.90625,10.75 -5.1691,2.76644 -8.72975,2.65951 -25.09375,-0.6875 -30.34494,-6.20662 -70.82136,-9.50894 -116.56246,-9.5 -75.1843,0.0147 -161.5674,8.62167 -217.312588,21.65625 l -10.7812,2.53125 -21.9688,19.9375 c -12.0797,10.97829 -21.937399,20.55004 -21.937399,21.25 0,0.69997 6.7917,4.56274 15.093699,8.59375 l 15.0937,7.34375 20.1563,-3.65625 c 75.675388,-13.73784 141.264888,-20.00306 209.656288,-20.03125 37.3859,-0.0154 54.7219,0.89401 81.99996,4.40625 17.3482,2.23369 22.9864,4.32185 26.75,9.90625 4.6442,6.89117 2.07115,16.90895 -5.46875,21.3125 -4.1007,2.39494 -6.66775,2.49188 -24.28125,0.71875 -18.62656,-1.87509 -107.00526,-1.98108 -133.99996,-0.15625 -59.9548,4.05292 -104.93469,9.28031 -138.812588,16.125 -26.2154,5.29671 -25.1646,4.75697 -47.5312,23.625 -10.819899,9.12744 -19.656199,17.22347 -19.656199,18 0,0.82378 6.7681,4.81044 16.249999,9.56251 l 16.25,8.15625 6,-1.6875 C 116.4786,304.5593 219.14589,293.8493 303.58259,294.86736 c 30.002,0.36174 35.0021,0.64156 38.4687,2.15625 10.00201,4.37024 14.20071,13.73681 9.56251,21.34376 -4.28141,7.02167 -2.5211,6.77558 -52.00001,6.875 -47.2929,0.095 -67.6567,1.17783 -113.0312,6 -39.9398,4.2446 -72.95939,9.47177 -98.499988,15.59375 -22.5049,5.39416 -21.4104,4.78836 -43.1876,24.0625 -10.7382,9.50413 -21.125499,18.64844 -23.093699,20.34375 -2.1355,1.8394 -3.3584,3.67541 -3.0313,4.53125 0.304,0.78879 8.6498,4.42383 18.531299,8.09375 l 17.9687,6.6875 7.9063,-2.5 c 40.108998,-12.59621 110.393688,-26.17244 164.593788,-31.8125 35.0796,-3.65039 79.4112,-3.96725 85.6562,-0.625 4.1172,2.20344 7.1563,7.03927 7.1563,11.46875 0,5.43594 -3.6059,12.38998 -7.9688,15.34375 -3.115,2.10893 -4.3763,2.24529 -19.9375,2.25 -26.4055,0.008 -61.1403,3.52589 -104.0937,10.5625 -41.5823,6.812 -91.851087,17.90331 -115.468788,25.46875 l -9.9062,3.15625 -11.0626,10.625 c -21.0875,20.20136 -33.562399,32.66203 -33.562399,33.5 0,0.46296 8.7237,5.04889 19.406199,10.21875 l 19.4375,9.40625 7.0625,-2.90625 C 110.0775,485.91186 207.60289,465.27114 266.08259,462.05487 c 11.9843,-0.65911 12.0223,-0.63207 15.1875,2.03125 5.6846,4.78322 6.5215,12.10914 2.1875,19.25 -3.2668,5.38241 -5.9716,6.37614 -24.25,8.96875 -51.3509,7.28364 -142.21189,29.69895 -183.499988,45.28125 -6.9792,2.63379 -13.8559,5.41638 -15.3126,6.1875 -3.7346,1.97913 -42.812399,38.06138 -42.812399,39.53125 0,1.15968 5.3189,3.39347 29.343699,12.3125 l 10.8437,4.0313 4.1563,-2.4063 c 11.4008,-6.5972 41.305298,-18.37023 64.656298,-25.4375 32.16599,-9.73518 72.61729,-18.81202 103.34369,-23.1875 15.1225,-2.15348 15.79,-2.16013 20.2188,-0.46875 5.4217,2.07057 8.4008,6.25586 8.4062,11.8125 0.01,8.248 -6.2695,14.75011 -16.0937,16.625 -30.6378,5.84703 -118.42189,32.15155 -154.874988,46.40625 -22.6142,8.8429 -19.2962,6.4598 -51.25,36.9375 -9.762699,9.3114 -17.749999,17.342 -17.749999,17.875 0,1.242 7.5479,4.5336 21.687399,9.4062 l 11.2188,3.84377 4.7812,-2.74997 c 10.8794,-6.2324 45.139798,-22.7833 61.937598,-29.9375 51.99989,-22.147 106.47559,-40.1327 115.65619,-38.1563 10.1465,2.1848 14.438,10.1522 10.0938,18.75 -2.9726,5.8841 -5.3639,7.5095 -16.75,11.2813 -28.7866,9.5359 -84.0878,33.0992 -124.12499,52.90627 -38.186998,18.8913 -43.897598,22.8804 -65.781298,46.0624 -9.751699,10.3321 -17.718699,19.3243 -17.718699,19.9688 0,1.3379 0.6544,1.6659 18.999999,9.625 7.4248,3.2215 14.2167,5.8733 15.0937,5.875 0.8769,0 5.6019,-2.8766 10.5,-6.375 24.2992,-17.3554 58.942398,-36.9302 91.406288,-51.625 26.9587,-12.203 64.9809,-26 71.5937,-26 8.2736,0 13.356,8.3217 11.2188,18.3438 -1.2896,6.0454 -4.0243,8.2391 -15.0938,12.0937 -47.5284,16.5502 -138.918488,67.5229 -183.687488,102.4375 -13.593699,10.6016 -22.031199,18.1519 -22.031199,19.7188 0,0.7418 4.1621,3.3418 9.25,5.7812 5.086199,2.4394 16.717399,8.0429 25.874999,12.4375 19.1994,9.2152 15.5182,9.4965 30.7187,-2.4687 21.379898,-16.8326 53.039288,-36.5958 62.687488,-39.125 6.3193,-1.6589 6.6132,-1.651 10.1563,0.2812 10.3413,5.6396 4.9366,18.2181 -17.1563,39.875 -16.02249,15.7063 -40.418887,34.1653 -50.124988,37.9062 -11.3247,4.3661 -27.0815,4.092 -39.7812,-0.6874 -7.7319,-2.9115 -10.087,-4.3259 -18.749999,-11.2813 -3.6368,-2.9193 -6.8995,-5.3125 -7.25,-5.3125 -0.8542,0 -0.8223,186.45906 0.031,187.31246 0.9995,0.9995 745.131997,0.8124 745.749997,-0.1875 0.2923,-0.473 0.84085,-26.2522 1.21875,-57.2812 l 0.6875,-56.40626 -6.40625,-4.0937 c -18.9669,-12.1395 -43.3673,-22.1067 -69.5625,-28.4063 -14.3046,-3.4401 -19.2184,-5.3988 -27.625,-11.0937 -8.235,-5.5811 -15.1219,-12.6183 -21.625,-22.0626 -2.9217,-4.2418 -7.63625,-9.6778 -10.46875,-12.0937 -9.1777,-7.828 -30.95635,-21.6875 -34.09375,-21.6875 -0.6953,0 -9.0534,11.9476 -18.5625,26.5625 -9.5091,14.6149 -18.6186,27.8986 -20.25,29.5313 -4.4784,4.477 -10.3954,7.1801 -14.1875,6.4687 -3.802,-0.7133 -7.78325,-4.6493 -9.90625,-9.8125 -1.8089,-4.3994 -3.625,-16.6324 -3.625,-24.2812 0,-6.2353 1.95815,-8.1377 7.34375,-7.0313 11.527,2.3682 12.04095,2.1286 19.96875,-9.625 4.4918,-6.6594 7.3877,-13.0002 14.5,-31.8125 4.8865,-12.925 9.1859,-25.1703 9.5625,-27.2188 1.3165,-7.1551 -2.40865,-11.2536 -22.46875,-24.625 -14.9763,-9.9813 -22.69955,-16.4289 -25.96875,-21.7187 -3.209,-5.1923 -2.16495,-6.4456 5.28125,-6.4063 6.7471,0.038 9.29585,0.6524 83.78125,20.5626 l 44.5,11.9062 12,0 c 11.6041,0 12.2814,-0.1273 18.8125,-3.3438 22.9044,-11.2771 42.34805,-51.6188 33.40625,-69.2812 -1.2423,-2.4538 -5.0122,-7.8356 -8.375,-11.9375 -6.4374,-7.8522 -8.0829,-10.4633 -9.375,-14.9687 -1.2986,-4.5281 0.886,-11.67667 5.75,-18.78127 6.5549,-9.5744 7.7692,-12.7966 5.875,-15.6875 -2.3699,-3.6169 -6.86175,-5.8865 -27.65625,-14.0625 -10.7028,-4.208 -20,-8.0956 -20.6875,-8.6563 -0.6875,-0.5593 -1.25,-1.8025 -1.25,-2.75 0,-3.6669 5.54225,-6.3206 16.90625,-8.0624 3.6169,-0.5553 13.27325,-2.418 21.46875,-4.1563 18.7526,-3.9776 20.1267,-4.9149 20.125,-13.9687 -7e-4,-3.4857 -1.0542,-12.0412 -2.3125,-19.00005 -2.7997,-15.48348 -2.1177,-19.86118 3.8125,-25.21875 4.5632,-4.12259 9.22505,-5.2706 25.53125,-6.21875 6.5699,-0.38202 12.9859,-1.09416 14.25,-1.5625 5.3022,-1.96439 6.61,-13.48863 3.3125,-29.34375 -2.1504,-10.34 -21.457,-90.48566 -23.625,-98.0625 -0.9252,-3.23347 -3.9095,-8.28639 -8.3125,-14.09375 -7.9043,-10.42543 -10.16995,-16.05061 -10.15625,-25.28125 0.012,-7.8755 2.60745,-14.11078 10.03125,-24.125 6.3042,-8.50385 8.15615,-13.63229 8.15625,-22.4375 2e-4,-11.05062 -6.8955,-28.55774 -13.4375,-34.0625 -5.43,-4.56904 -18.2795,-3.04888 -39.75,4.71875 -30.8332,11.15485 -115.4659,53.67197 -154,77.34375 -17.3526,10.6598 -17.99685,10.93511 -24.34375,10.96875 -4.9593,0.0263 -6.127,-0.34157 -7.75,-2.34375 -6.4785,-7.99254 2.2825,-18.73263 31.25,-38.25 25.1633,-16.95424 98.44425,-57.48753 132.34375,-73.21876 57.2606,-26.57211 59.435,-27.73552 62.125,-32.9375 2.7067,-5.2341 -0.53425,-13.05188 -6.71875,-16.25 -2.3989,-1.24052 -4.06375,-1.34218 -9.53125,-0.46875 -3.6498,0.58306 -8.11165,1.68767 -9.90625,2.4375 -1.7946,0.74984 -28.7321,15.57894 -59.875,32.96875 -37.1197,20.72718 -58.343,32.0237 -61.625,32.78126 -11.9502,2.75845 -17.2146,-6.50124 -8.6875,-15.28126 10.4026,-10.71124 88.07355,-62.58485 120.15625,-80.25 16.6049,-9.14283 21.55605,-14.53885 20.15625,-22 -0.9772,-5.20888 -25.48635,-40.5976 -30.53125,-44.09375 -10.2613,-7.11106 -24.7034,-3.12648 -49.0625,13.53125 -47.0642,32.18427 -155.0395,151.06287 -186.0625,204.87501 -4.7122,8.17376 -11.8266,16.40219 -16.125,18.625 -1.5025,0.77697 -4.5091,1.40625 -6.6875,1.40625 -5.7946,0 -9.125,-4.20637 -9.125,-11.5 0,-4.53584 0.87505,-7.16098 5.90625,-17.1875 20.8099,-41.47126 58.4497,-90.94245 113.4375,-149.15626 34.1964,-36.20251 87.63595,-85.3427 106.28125,-97.71875 6.7498,-4.48024 8.7529,-7.29839 7.5,-10.59374 -1.0795,-2.839323 -15.3894,-16.675623 -26.4375,-25.562503 -64.9641,-52.25586 -155.99786,-84.3028302 -269.1875,-94.75 -25.82506,-2.3836 -61.20826,-3.55948 -94.09376,-3.375 z M 733.08255,327.89862 c 0.80397,-0.002 1.47811,0.0721 2.0625,0.21875 6.296,1.5802 9.7319,10.16431 5.5625,13.9375 -1.0297,0.9319 -12.3922,6.21382 -25.25,11.71875 -12.8577,5.50493 -28.18375,12.25255 -34.03125,15 -12.1483,5.70792 -16.17375,6.57277 -20.09375,4.375 -5.1641,-2.89521 -4.87015,-9.75667 0.65625,-14.96875 4.3515,-4.10402 12.97155,-8.5241 36.84375,-18.9375 17.54384,-7.65286 28.62222,-11.32979 34.25,-11.34375 z m -23.09375,51.125 c 0.36431,-0.0114 0.72025,-0.008 1.0625,0 3.52027,0.0775 5.95744,1.1418 8.5,3.28125 4.5383,3.8187 4.10645,7.57007 -2.21875,19.15625 -2.8875,5.28916 -7.1703,11.59844 -9.5,14.03125 l -4.21875,4.40625 -6.28125,-0.59375 c -3.4453,-0.33082 -9.23215,-0.87734 -12.84375,-1.21875 -4.5633,-0.43136 -8.4593,-0.14648 -12.8125,0.96875 -8.5137,2.18112 -11.3575,2.05883 -13.9375,-0.6875 -3.1769,-3.38163 -2.71495,-6.82021 1.65625,-12.34375 10.3517,-13.08049 23.81425,-21.45136 40.90625,-25.4375 4.02535,-0.93878 7.13736,-1.48295 9.6875,-1.5625 z m -273.84375,42.75 c 4.98247,-0.11107 11.15058,1.43396 17.96875,4.8125 18.5657,9.19966 32.23925,27.95789 39.21875,53.875 2.2999,8.54032 2.59685,11.7001 2.65625,26.21875 0.045,10.98572 -0.3391,17.70441 -1.1875,20.09375 -1.8174,5.11789 -5.63655,9.92167 -10.40625,13.125 -5.0793,3.41136 -12.6351,3.81131 -17.3125,0.90625 -10.1918,-6.32987 -11.86515,-14.24766 -5.78125,-27.5 3.4518,-7.51887 3.7351,-8.79729 3.6875,-17.125 -0.042,-7.33234 -0.6274,-10.60152 -3.0625,-17.5625 -5.4321,-15.52842 -16.3056,-28.34381 -26.625,-31.34375 -6.9123,-2.00946 -10.81055,-6.00411 -11.46875,-11.84375 -0.97606,-8.65951 4.00839,-13.47113 12.3125,-13.65625 z m 215.28125,11 c 0.17351,-0.0116 0.35524,-0.006 0.53125,0 1.81033,0.0579 3.76259,1.01879 6.21875,2.90625 2.145,1.64835 5.93125,4.55341 8.40625,6.46875 5.9565,4.60959 17.7776,9.50483 25.6875,10.625 6.5012,0.92068 12.94405,3.58451 15.15625,6.25 4.0461,4.87527 1.3033,12.92722 -5.5,16.15625 -5.6055,2.66053 -16.5778,2.99308 -22.9375,0.71875 -7.6592,-2.73903 -14.7209,-7.69415 -21.6875,-15.21875 -10.6329,-11.48453 -14.7031,-22.79316 -9.5,-26.4375 1.25417,-0.87845 2.41045,-1.38762 3.625,-1.46875 z m -287.09375,5.78125 c 2.75091,-0.10752 5.48292,0.58352 8.0625,2.15625 6.8073,4.15031 7.6531,12.68927 2.125,21.40625 -8.4733,13.3609 -10.33305,19.64465 -10.40625,35.5625 -0.049,10.74645 -0.32635,12.99148 -2.09375,16 -4.0037,6.81545 -13.3877,9.82143 -19.93746,6.40625 -7.7569,-4.04455 -10.6328,-9.62249 -11.2813,-21.96875 -1.5365,-29.2497 16.7201,-58.90544 33.53126,-59.5625 z m 59.5625,32.5 c 5.46615,0.0272 10.81855,3.86282 14.1875,10.53125 2.1185,4.19326 1.5059,11.2774 -1.6875,19.8125 -5.111,13.66047 -20.90666,22.97847 -32.8125,19.34375 -9.554,-2.91672 -18.9688,-11.82001 -21.5,-20.34375 -0.8305,-2.79639 -1.5121,-5.79358 -1.5,-6.65625 0.048,-3.42367 4.0353,-10.11532 7.1875,-12.09375 3.3598,-2.10872 6.1171,-2.175 17,-0.375 3.45044,0.5707 4.0126,0.27532 7.875,-3.96875 2.2859,-2.51172 5.64495,-5.05435 7.46875,-5.65625 1.25346,-0.41368 2.51983,-0.60003 3.78125,-0.59375 z m 252.15625,30.59375 c 6.54954,0.10812 10.55055,6.02175 8.625,15 -1.2841,5.98752 -26.5641,56.88296 -31.0625,62.53125 -4.8624,6.10541 -10.50235,9.5 -15.78125,9.5 -3.7033,0 -5.02605,-0.55729 -7.78125,-3.3125 -5.4047,-5.40465 -6.56605,-13.32328 -3.28125,-22.1875 0.6114,-1.65 7.59625,-13.69287 15.53125,-26.75 14.6744,-24.14683 18.27185,-28.618 26.46875,-32.84375 2.63067,-1.35618 5.09807,-1.97354 7.28125,-1.9375 z m -311.59375,19.4375 c 4.23746,-0.0296 8.383,1.89253 11.90625,5.78125 12.2565,13.52797 21.36466,17.75778 38.25,17.78125 9.5599,0.0133 17.5748,-1.73776 24.9375,-5.46875 6.4256,-3.25611 12.0556,-3.25854 17.5625,-0.0312 9.56,5.60253 10.1457,18.45351 1.1875,25.5 -3.7084,2.91706 -20.20075,9.70958 -29.15625,12 -8.9791,2.29647 -23.96256,3.2169 -32.0625,1.96875 -8.8344,-1.36132 -19.1325,-4.67215 -26.5,-8.53125 -23.58386,-12.3531 -31.38376,-30.30375 -18.65625,-43.03125 3.9409,-3.94089 8.29379,-5.93913 12.53125,-5.96875 z m 96.65625,74.78125 c 1.55265,0.0209 2.63682,0.793 4.8125,2.9687 4.9171,4.9172 6.3756,12.104 4.8125,23.8438 -2.487,18.6801 -3.40705,51.5792 -2.84375,102.49997 0.5867,53.0265 1.6529,77.2926 4.3125,98.5 0.8622,6.875 1.7863,15.6993 2.0625,19.625 1.6867,23.9762 -14.1723,34.8403 -56,38.3125 -14.70244,1.2204 -49.0917,1.1997 -58.6875,-0.031 -10.1504,-1.3016 -19.94976,-3.8771 -26.74996,-7.0624 -7.4625,-3.4973 -10.5548,-7.9921 -12.7813,-18.5 -2.072,-9.7799 -1.9088,-17.1631 0.4688,-21.0626 2.2561,-3.699 6.7281,-6.2804 10.75,-6.25 6.4339,0.052 14.7228,6.1383 19.03121,13.9688 3.3125,6.0206 6.97975,7.3706 21.15625,7.8438 13.5654,0.4505 54.51,-2.4024 62,-4.3126 6.9292,-1.7649 7.31115,-3.0383 6.71875,-22.5312 -0.2759,-9.075 -1.01205,-26.4 -1.65625,-38.5 -2.3999,-45.076 1.47255,-151.54337 6.15625,-168.93747 1.5248,-5.6625 6.25975,-14.6719 9.09375,-17.3125 1.3191,-1.229 3.8129,-2.5251 5.5625,-2.875 0.67863,-0.1357 1.2637,-0.1945 1.78125,-0.1875 z m -114.00001,8.75 c 1.50465,-0.077 2.96247,0.2586 4.40626,1.0313 2.1728,1.1629 4.0723,6.1114 4,10.4374 -0.069,4.1569 -3.84505,17.5409 -8.90626,31.5938 -10.1608,28.2125 -22.8768,81.88807 -27.6562,116.78117 -1.6243,11.8587 -1.6479,13.7094 -0.3438,17.4376 1.1645,3.3271 2.3801,4.6486 5.9688,6.4687 2.475,1.2553 6.9724,2.5606 10,2.9063 7.5782,0.8632 9.649,-0.9394 11.1562,-9.5938 1.4976,-8.5991 3.12621,-12.2206 6.87501,-15.375 3.5886,-3.0196 8.47245,-3.4501 12.96875,-1.125 3.8761,2.0044 7.93475,9.1264 8.65625,15.2188 1.3457,11.3614 -4.66045,29.4941 -12.46875,37.625 -7.3584,7.6612 -18.39186,11.0772 -26.68746,8.2812 -2.2,-0.7415 -8.05,-3.4115 -13,-5.9375 -5.3727,-2.7418 -11.6198,-5.0784 -15.5,-5.7813 -12.9395,-2.3432 -17.2682,-3.9244 -21.125,-7.7812 -6.4919,-6.492 -7.3524,-15.8808 -3,-32.9375 1.0785,-4.2268 3.4068,-14.2125 5.1562,-22.1875 6.7801,-30.9097 23.7854,-86.96917 32.4688,-106.99997 2.0267,-4.675 5.1949,-12.011 7.0312,-16.3125 6.4868,-15.1958 13.4799,-23.4163 20,-23.75 z m 60.59376,1.0625 c 9.3547,0 10.41925,4.9395 7.96875,37.5 -1.5164,20.149 -0.97435,72.87607 0.90625,87.40617 1.9613,15.1549 -1.54686,23.7575 -11.6875,28.7188 -4.9231,2.4086 -7.14395,2.8575 -15.28125,3.0625 -5.2433,0.1321 -12.735,-0.3582 -16.625,-1.0937 -18.9061,-3.5779 -24.36555,-9.4123 -24.40625,-26.0938 -0.038,-15.6049 11.55815,-102.13267 15.15625,-113.09377 2.8393,-8.6481 7.83925,-14.4062 12.46875,-14.4062 8.6495,0 12.74065,12.832 8.90625,27.8438 -3.0547,11.9583 -6.70525,43.5855 -8.53125,73.56237 -0.8929,14.6602 -0.8252,17.1962 0.5,19.2188 2.1128,3.2246 6.05315,4.0856 8.53125,1.8438 1.7687,-1.6017 1.96005,-3.154 1.96875,-15.875 0.015,-21.3821 2.35265,-57.60307 5.09375,-79.09377 2.2226,-17.4258 8.36381,-29.5 15.03125,-29.5 z M 230.98879,917.64864 c 4.8342,0.077 10.6351,0.9694 16.2188,2.5937 23.3018,6.7786 60.0339,14.4126 107.87496,22.4063 26.4968,4.4266 71.668,11.0273 85.6875,12.5312 8.0388,0.8623 15.82745,5.0211 18.09375,9.6562 1.6115,3.2973 1.6606,4.0489 0.375,7.125 -1.7862,4.2754 -5.55465,6.9901 -13.21875,9.5626 -12.7477,4.2774 -28.05721,5.0023 -54.53125,2.5937 -53.62331,-4.8785 -132.53611,-21.3554 -157.46871,-32.875 -19.3434,-8.9372 -25.6485,-25.2459 -12.4063,-32.0937 1.6958,-0.8777 4.2639,-1.3648 7.375,-1.4688 0.6481,-0.022 1.3094,-0.043 2,-0.031 z m 406.12501,16.0624 c 7.22769,-0.2378 11.99119,1.8974 14.15625,6.4376 1.5074,3.1611 1.50065,3.7241 -0.15625,8.0624 -3.2634,8.5452 -5.41645,10.2939 -38.90625,31.8438 -5.8103,3.7388 -10.5747,6.0303 -13.875,6.6562 -5.5719,1.0568 -5.2395,1.0689 -12.375,-0.125 -5.1426,-0.8604 -18.99475,-5.611 -24.21875,-8.3124 -4.0914,-2.1159 -9.86435,-8.8633 -10.65625,-12.4688 -1.4702,-6.6939 3.97375,-14.5267 10.78125,-15.5312 1.7713,-0.2615 7.69015,-0.9603 13.15625,-1.5626 12.1145,-1.3345 25.80995,-4.7188 40.78125,-10.0937 8.57911,-3.08 15.69096,-4.7213 21.3125,-4.9063 z m -521.6562,27.0626 c 2.4756,0.084 4.8947,0.6625 6.875,1.7187 3.7197,1.9839 44.33739,56.84096 48.93749,66.09366 3.3858,6.8107 4.2217,15.4286 1.9062,19.9063 -3.1335,6.0595 -12.4415,8.0338 -19.7187,4.1875 -1.98,-1.0465 -6.4308,-5.1708 -9.9063,-9.1875 -7.6157,-8.8018 -10.944,-11.8059 -13.125,-11.8125 -0.9025,0 -3.82749,1.5503 -6.49999,3.4688 -11.3597,8.1533 -17.9986,9.5882 -24.437497,5.25 -5.770301,-3.8886 -8.173901,-8.408 -7.687501,-14.4688 0.4862,-6.059 1.8331,-7.8456 9.999998,-13.4062 9.574,-6.5208 9.7533,-8.0906 2.3125,-20.24996 -5.971897,-9.76 -7.066497,-13.0019 -6.093797,-18.1876 0.7932,-4.2267 5.901297,-10.2454 10.250097,-12.0624 2.1883,-0.9149 4.7118,-1.3352 7.1875,-1.25 z"
         style="fill:#007ac2;fill-opacity:1;display:inline" />
      <path
         id="path4174"
         d="m 846.05739,1452.2357 c -6.4331,-6.871 -7.4043,-9.0096 -7.4225,-16.3439 -0.018,-7.2474 1.858,-10.788 12.6041,-23.7889 4.7202,-5.7105 8.5821,-10.9714 8.5821,-11.691 0,-3.7842 -3.9526,-1.7931 -14,7.0526 -20.0754,17.6742 -44.7779,31.9395 -64.3407,37.1557 -12.7848,3.409 -29.0345,1.7562 -40.6617,-4.1358 -11.0171,-5.5827 -20.21069,-17.8198 -23.03108,-30.6552 -3.28308,-14.9412 1.05842,-34.9629 12.54978,-57.8761 19.0719,-38.0283 48.5944,-65.6808 82.0793,-76.8803 32.8844,-10.9987 55.6316,-1.1592 59.2189,25.6156 1.119,8.3513 -0.3744,15.5141 -5.2228,25.0508 -9.0091,17.721 -23.4912,30.3757 -44.4457,38.8372 -12.497,5.0465 -30.5175,10.6343 -44.8551,13.9089 -5.6149,1.2825 -10.734,2.6562 -11.3757,3.0528 -2.1273,1.3147 -0.3466,11.3702 2.8144,15.893 3.7677,5.3909 11.2051,10.2723 16.9677,11.1364 11.2762,1.691 28.4383,-4.7846 49.246,-18.5814 37.2159,-24.6766 51.9097,-37.7033 80.6903,-71.5352 118.92861,-139.8022 121.37661,-142.595 124.70671,-142.2719 2.8662,0.2782 3.5633,1.0955 7.5046,8.7989 4.1663,8.1432 4.3307,8.8018 4,16.0233 -0.3014,6.5816 -0.7859,8.2215 -3.8426,13.0078 -4.1251,6.4591 -34.7243,47.2311 -61.82621,82.3804 -10.5611,13.697 -18.9832,25.1224 -18.7159,25.3898 0.5779,0.5779 1.0852,0.2245 15.9125,-11.085 31.71841,-24.1933 55.62671,-36.7085 70.12551,-36.7085 4.904,0 12.1546,3.4969 14.8078,7.1418 4.1034,5.6373 3.9441,17.443 -0.3712,27.5102 -3.3262,7.7598 -11.8178,17.4624 -37.9372,43.348 -24.9417,24.7184 -32.42413,33.6507 -38.11461,45.5 -3.5466,7.3852 -3.6515,10.8224 -0.4285,14.0454 3.0228,3.0227 5.48378,3.0504 12.54551,0.1413 9.9252,-4.0888 17.3077,-10.097 31.2037,-25.3949 7.3896,-8.1352 14.1757,-14.9338 15.0803,-15.108 4.322,-0.8324 2.6563,11.9757 -3.0324,23.3162 -4.6126,9.1952 -15.7245,25.3769 -22.9537,33.426 -19.3763,21.5744 -45.18281,32.561 -63.95521,27.2278 -15.2761,-4.3398 -22.6112,-18.3321 -18.9528,-36.1538 3.6831,-17.9419 18.1138,-39.2963 45.3418,-67.0963 9.49758,-9.6971 17.26831,-18.1424 17.26831,-18.7674 0,-1.7034 -3.97133,-1.3324 -8.69561,0.8124 -9.2042,4.1786 -53.2528,35.158 -69.6167,48.9614 -4.2968,3.6244 -20.9468,21.1992 -37,39.0552 -16.0532,17.8559 -29.9752,33.2684 -30.9377,34.25 -3.0408,3.1011 -5.7814,2.1572 -11.5137,-3.9653 z m -49.9528,-101.9254 c 11.6433,-3.4544 23.6662,-11.2879 33.7804,-22.0095 7.6204,-8.078 9.9361,-12.4222 9.9361,-18.6395 0,-3.4061 -0.6389,-5.2815 -2.5889,-7.5989 -2.2511,-2.6752 -3.2371,-3.0767 -7.5561,-3.0767 -5.3594,0 -12.9244,3.1995 -21.4757,9.083 -10.1113,6.9568 -23.9859,22.9401 -31.3027,36.0603 -2.9748,5.3344 -3.0531,5.7373 -1.4292,7.3612 1.4391,1.4391 2.8297,1.6083 8.5688,1.0428 3.7679,-0.3713 9.1983,-1.3715 12.0673,-2.2227 z m -299.7835,99.8097 c -5.3049,-2.416 -11.09952,-8.9943 -12.62089,-14.3277 -1.69964,-5.9583 -1.42854,-18.0367 0.57922,-25.8066 3.44242,-13.322 15.76523,-35.1022 26.02594,-46 4.07691,-4.3301 6.737,-9.4665 6.32641,-12.2156 -1.33409,-8.9325 -18.13376,-0.6114 -43.31068,21.4524 -21.6374,18.962 -46.79656,44.8241 -70.54219,72.5132 -4.28337,4.9947 -7.23661,4.4608 -13.83061,-2.5 -9.68269,-10.2215 -10.84342,-13.8699 -7.06354,-22.2024 2.21668,-4.8865 7.89067,-12.0707 36.70482,-46.4745 18.53787,-22.134 24.73078,-31.1085 23.56423,-34.1485 -1.10835,-2.8883 -6.93208,-1.4319 -19.88975,4.974 -23.34531,11.5413 -60.78288,40.6325 -95.47969,74.1935 -8.40201,8.1269 -15.7144,14.3796 -17.2748,14.7712 -5.55081,1.3932 -11.44465,-4.4839 -14.65506,-14.6133 -0.65368,-2.0625 -1.40357,-3.75 -1.66642,-3.75 -0.26285,0 -4.39045,3.4003 -9.17245,7.5562 -15.35677,13.3463 -29.34219,21.4438 -37.03627,21.4438 -4.16761,0 -11.63194,-5.2394 -14.49231,-10.1724 -5.23755,-9.0329 -4.35789,-17.5292 3.41556,-32.9898 4.36323,-8.678 4.67763,-10.3136 2.24426,-11.6754 -3.48345,-1.9494 -7.2401,0.8209 -14.9901,11.0545 -13.99047,18.474 -28.4933,31.7171 -43.80659,40.0016 -5.1894,2.8075 -7.004,3.259 -13.02908,3.2419 -8.3573,-0.024 -13.2414,-2.2181 -18.9154,-8.4985 -6.2375,-6.9041 -9.0312,-16.1829 -7.4405,-24.7119 0.4873,-2.6125 3.3542,-9.153 6.3709,-14.5344 3.0168,-5.3815 5.485,-10.6831 5.485,-11.7814 0,-5.5845 -6.8926,-2.0261 -16.1084,8.3162 -12.909,14.4869 -35.24101,31.881 -51.27081,39.9343 -20.9311,10.5155 -41.2281,11.9522 -57.0863,4.0405 -11.5524,-5.7636 -16.3254,-12.4185 -21.1457,-29.4834 -1.5134999,-5.358 -3.1932999,-9.7418 -3.7328999,-9.7418 -0.5397003,0 -4.1705003,2.6278 -8.0685003,5.8396 -19.3998998,15.9846 -40.0742998,29.6615 -52.4005998,34.6652 -17.1282,6.9528 -38.716995,8.9117 -50.68679,4.5993 -7.3958,-2.6646 -14.5465,-7.3313 -21.2735,-13.8835 -11.2555,-10.9632 -15.6886,-22.2164 -15.6475,-39.7206 0.028,-11.9194 1.1346,-18.6109 5.1264,-31 5.6637,-17.5782 13.4189,-29.6708 28.7481,-44.8266 22.639395,-22.3832 49.67299,-39.7558 71.68599,-46.0674 38.2189998,-10.9583 62.894,-1.044 64.6433,25.9733 0.5813,8.979 -1.3622,15.9126 -6.8328,24.3768 -17.6417004,27.295 -52.7546,45.4718 -101.45,52.5172 -14.207495,2.0556 -15.499995,2.9648 -15.499995,10.903 0,6.6817 2.4195,11.1472 8.5985,15.8699 6.849295,5.2349 13.153295,7.1595 21.038895,6.4232 14.105,-1.3172 37.4804,-11.4512 59.3702,-25.7389 17.2893,-11.285 21.8189,-15.382 27.2029,-24.6051 12.0188,-20.589 31.1338,-42.4282 48.7517,-55.6996 10.9248,-8.2295 27.7789,-17.158 39.5378,-20.9453 23.13511,-7.4513 41.01221,-5.8502 46.86551,4.1972 2.5309,4.3442 2.5886,12.7436 0.1384,20.1223 -2.2743,6.8486 -11.2737,16.1744 -19.8155,20.5339 l -5.8116,2.9661 -1.9384,-2.3608 c -1.0661,-1.2985 -1.9384,-3.846 -1.9384,-5.6611 0,-4.9554 -4.6163,-8.4781 -11.11001,-8.4781 -16.1436,0 -48.5892,29.7126 -56.6274,51.8575 -8.177,22.5274 0.2681,40.1106 19.2773,40.1369 5.6494,0.01 14.4446,-2.445 21.217,-5.9168 12.7613,-6.5421 44.15661,-32.981 71.32201,-60.0624 21.56845,-21.5018 33.51329,-35.196 48.8594,-56.0152 5.06765,-6.875 10.37286,-13.1126 11.78935,-13.8614 1.58786,-0.8393 4.14703,-1.1542 6.67389,-0.8211 3.38929,0.4468 5.0653,1.5655 9.68616,6.4653 3.07325,3.2588 6.83143,7.5557 8.35152,9.5486 l 2.7638,3.6235 -10.70549,11.9558 c -13.31771,14.873 -24.73542,29.4441 -33.76421,43.0893 -20.34641,30.7494 -23.34605,49.0481 -8.02878,48.978 7.54071,-0.034 11.84105,-2.789 24.38855,-15.6216 27.36065,-27.9822 51.85613,-57.2882 76.36044,-91.3564 5.34059,-7.425 10.86737,-14.1131 12.28173,-14.8624 4.32407,-2.2907 9.12819,-0.051 18.20559,8.4887 4.43253,4.1698 8.05914,8.0161 8.05914,8.5474 0,0.5313 -4.82399,7.5721 -10.71997,15.6461 -22.53015,30.8532 -39.35811,57.2009 -44.7363,70.044 -7.48815,17.8817 -2.0823,25.1028 12.26688,16.3862 25.63854,-15.5747 65.97064,-56.3457 101.68918,-102.7959 10.76672,-14.0016 13.21432,-16.353 17.09049,-16.4187 3.90682,-0.066 14.33487,5.9605 16.93544,9.7876 4.14162,6.0949 3.8406,7.0314 -10.27294,31.9599 -4.13615,7.3056 -7.27501,13.5282 -6.97523,13.8279 0.51659,0.5166 7.92515,-5.5448 40.16493,-32.8616 17.32351,-14.6782 23.90129,-18.1981 33.98007,-18.1833 5.83745,0.01 7.96584,0.4962 12.14804,2.7835 12.16436,6.6528 11.51613,16.3845 -2.68105,40.2502 -9.0683,15.2439 -10.17431,17.4004 -8.92446,17.4004 0.55904,0 11.9331,-9.3547 25.27568,-20.7883 31.00081,-26.5652 33.41034,-28.4383 42.06445,-32.7006 13.2032,-6.5027 24.23843,-6.7933 32.87118,-0.8656 9.21945,6.3306 8.87919,17.3652 -1.00148,32.4779 -2.69813,4.1269 -17.25641,20.8131 -33.0463,37.8766 -23.031,24.8886 -28.85875,31.7665 -31.67608,37.3843 -4.88007,9.7309 -4.40011,14.7886 1.77254,18.6786 4.46243,2.8123 14.26543,2.2326 21.98143,-1.2999 9.539,-4.3671 32.11242,-20.2066 45.10169,-31.6473 3.19451,-2.8137 6.44663,-5.1157 7.22695,-5.1157 2.66225,0 4.43846,4.6017 5.42499,14.0549 1.26708,12.1416 3.29173,18.801 7.34255,24.1509 4.88976,6.4579 8.58542,7.9895 18.20971,7.5465 17.15238,-0.7896 27.48761,-11.4193 27.48761,-28.2708 0,-12.8607 -7.34885,-22.0279 -28.44385,-35.4815 -15.46132,-9.8607 -21.01183,-16.6085 -22.24811,-27.0469 -0.82754,-6.9873 1.69638,-12.936 8.18855,-19.2997 16.90561,-16.5713 48.96994,-26.604 98.17603,-30.7186 17.01818,-1.4231 22.30408,-0.821 26.61618,3.0319 2.919,2.6081 3.1889,3.3899 3.5139,10.1792 0.2106,4.3998 -0.1811,8.952 -0.9753,11.3318 -1.5047,4.509 -0.7386,4.277 -21.3274,6.4587 -30.28544,3.2093 -52.68674,10.7226 -57.0339,19.1291 -2.58181,4.9927 0.0942,10.7073 8.8496,18.8979 15.36046,14.3697 19.73211,19.354 23.20711,26.4598 6.29548,12.8732 5.64896,21.6096 -2.81782,38.0768 -3.23667,6.295 -6.25421,10.1311 -14.15913,18 -18.92483,18.8384 -40.28783,28.3008 -61.54586,27.2609 -10.77635,-0.5273 -17.57467,-3.3348 -23.00025,-9.4986 -4.32843,-4.9173 -11.75033,-17.1256 -14.902,-24.5123 -1.11467,-2.6125 -2.5194,-4.75 -3.12162,-4.75 -0.60222,0 -9.95571,7.0036 -20.78554,15.5635 -10.82982,8.56 -22.5406,17.1697 -26.02394,19.1327 -13.55731,7.6401 -28.33151,10.2342 -36.66665,6.4381 z m -553.8873,-111.8239 c 14.9585,-6.3111 35.9814,-23.8252 38.4212,-32.0087 2.612,-8.7609 -2.6697,-13.5967 -12.4578,-11.4062 -6.9021,1.5446 -18.4075,7.095 -26.1294,12.6052 -11.2377,8.0191 -27.925,28.2983 -25.9352,31.5178 2.4884,4.0264 15.7309,3.6671 26.1012,-0.7081 z m -184.64149,109.248 c -17.7266,-6.5335 -25.7968,-15.6381 -26.7506,-30.1794 -0.7544,-11.5022 3.3479,-20.7859 19.6106,-44.379 20.1346,-29.2104 78.2796,-104.6772 122.4706,-158.9555 4.234,-5.2005 7.6982,-9.813 7.6982,-10.25 0,-1.3908 -4.6429,-0.9192 -51.2516,5.2055 -25.113,3.3 -47.8354,6 -50.4941,6 -10.6881,0 -21.9643,-4.8534 -25.6081,-11.0219 -0.9923,-1.6797 -3.3456,-7.6314 -5.2296,-13.2259 -2.726,-8.0944 -3.1694,-10.4098 -2.1711,-11.3371 1.1086,-1.0298 161.071495,-25.2566 190.75449,-28.8903 30.2028,-3.6973 48.3283,-4.8779 76,-4.9503 31.459,-0.082 38.9316,0.7384 48.6526,5.3432 7.8065,3.6979 12.4268,9.0585 16.1151,18.6969 4.5222,11.8177 6.5954,18.9966 5.9625,20.646 -0.4862,1.2671 -8.075,1.5557 -53.3985,2.0302 -50.3747,0.5275 -67.4343,1.2836 -86.2139,3.8208 -10.4531,1.4122 -12.0847,2.7597 -27.0647,22.3515 -42.63669,55.7627 -85.40149,119.581 -128.68449,192.0369 -11.1709,18.7 -21.0197,35.0125 -21.8863,36.25 -1.7727,2.5313 -3.4136,2.6872 -8.5111,0.8084 z"
         style="fill:#000000;display:inline" />
    </g>
  </g>
</svg>
